<?xml version="1.0" standalone="no"?>
<!DOCTYPE svg PUBLIC "-//W3C//DTD SVG 20010904//EN"
 "http://www.w3.org/TR/2001/REC-SVG-20010904/DTD/svg10.dtd">
<svg version="1.0" xmlns="http://www.w3.org/2000/svg"
 width="8158.000000pt" height="8150.000000pt" viewBox="0 0 8158.000000 8150.000000"
 preserveAspectRatio="xMidYMid meet">

<g transform="translate(0.000000,8150.000000) scale(0.100000,-0.100000)"
fill="#ffffff" stroke="none">
<path d="M62184 56945 c-34 -7 -81 -23 -105 -35 -93 -48 -220 -181 -323 -338
-163 -251 -352 -565 -568 -942 -1090 -1902 -2025 -3804 -2833 -5763 -90 -218
-103 -244 -160 -310 -107 -126 -816 -977 -920 -1105 l-100 -122 -82 1 c-74 2
-83 4 -83 20 0 17 -8 19 -65 19 -63 0 -65 1 -65 25 0 24 -3 25 -67 27 -98 2
-98 2 -98 18 0 13 -59 15 -462 18 -458 2 -463 2 -463 -18 0 -18 -7 -20 -80
-20 -79 0 -80 0 -80 -25 0 -24 -2 -25 -67 -26 -38 -1 -76 0 -86 1 -13 1 -17
-4 -15 -17 3 -17 -10 -18 -209 -21 -205 -2 -213 -3 -213 -22 0 -18 -7 -20 -59
-20 -51 0 -61 -3 -66 -20 -3 -11 -9 -19 -13 -19 -4 1 -67 1 -139 0 -126 -1
-133 -2 -133 -21 0 -19 -7 -20 -125 -20 -118 0 -125 -1 -125 -20 0 -17 -7 -20
-45 -20 -41 0 -45 -2 -45 -25 0 -25 0 -25 -97 -26 -54 -1 -90 -3 -80 -6 9 -2
17 -11 17 -19 0 -10 -13 -14 -45 -14 -38 0 -45 -3 -45 -20 0 -19 -7 -20 -100
-20 -93 0 -100 -1 -100 -20 0 -15 -7 -20 -25 -20 -18 0 -25 -5 -25 -20 0 -18
-7 -20 -80 -20 -73 0 -80 -2 -80 -20 0 -13 -7 -20 -19 -20 -11 0 -23 -5 -26
-10 -5 -8 -12 -7 -23 2 -12 9 -11 6 2 -10 11 -12 16 -25 12 -29 -4 -4 -12 -1
-17 7 -8 11 -12 12 -16 3 -3 -9 -26 -13 -64 -13 -52 0 -59 -2 -59 -20 0 -17
-7 -20 -40 -20 -33 0 -40 -3 -40 -20 0 -17 -7 -20 -45 -20 -38 0 -45 -3 -45
-20 0 -18 -7 -20 -60 -20 -53 0 -60 -2 -60 -20 0 -13 -7 -20 -20 -20 -13 0
-20 -7 -20 -20 0 -18 -7 -20 -65 -20 -63 0 -65 -1 -65 -25 0 -18 -5 -25 -20
-25 -14 0 -20 -7 -21 -22 l0 -23 -10 23 c-5 13 -13 21 -18 17 -6 -3 -8 -12 -4
-20 4 -12 -7 -15 -65 -15 -55 0 -71 -3 -76 -16 -4 -9 -13 -14 -22 -10 -8 3
-12 2 -9 -4 3 -6 -3 -10 -14 -10 -27 0 -51 -10 -51 -22 0 -5 5 -6 10 -3 6 3
10 1 10 -4 0 -14 -13 -14 -28 1 -9 9 -12 9 -12 0 0 -7 -9 -12 -20 -12 -13 0
-20 -7 -20 -20 0 -17 -7 -20 -45 -20 -38 0 -45 -3 -45 -19 0 -13 -8 -21 -22
-23 -15 -2 -24 -11 -26 -25 -3 -19 -10 -23 -38 -23 -27 0 -34 -4 -34 -20 0
-13 -7 -20 -20 -20 -13 0 -20 -7 -20 -20 0 -17 -7 -20 -45 -20 -38 0 -45 -3
-45 -20 0 -13 -7 -20 -20 -20 -13 0 -20 -7 -20 -20 0 -17 -7 -20 -40 -20 -33
0 -40 -3 -40 -20 0 -17 -7 -20 -45 -20 -41 0 -45 -2 -45 -25 0 -18 -5 -25 -20
-25 -13 0 -20 -7 -20 -20 0 -13 -7 -20 -20 -20 -13 0 -20 -7 -20 -20 0 -17 -7
-20 -40 -20 -33 0 -40 -3 -40 -20 0 -17 -7 -20 -45 -20 -38 0 -45 -3 -45 -20
0 -13 -7 -20 -20 -20 -13 0 -20 -7 -20 -20 0 -13 -7 -20 -20 -20 -15 0 -20 -7
-20 -25 0 -18 -5 -25 -20 -25 -13 0 -20 -7 -20 -20 0 -17 -7 -20 -40 -20 -33
0 -40 -3 -40 -20 0 -15 -7 -20 -25 -20 -18 0 -25 -5 -25 -20 0 -13 -7 -20 -20
-20 -13 0 -20 -7 -20 -20 0 -13 -7 -20 -20 -20 -13 0 -20 -7 -20 -20 0 -13 -7
-20 -20 -20 -15 0 -20 -7 -20 -25 0 -23 -4 -25 -41 -25 -36 0 -41 -2 -36 -20
4 -17 0 -20 -24 -20 -22 0 -29 -5 -29 -20 0 -13 -7 -20 -20 -20 -13 0 -20 -7
-20 -20 0 -13 -7 -20 -20 -20 -13 0 -20 -7 -20 -20 0 -17 -7 -20 -41 -20 -36
0 -41 -2 -36 -20 4 -16 0 -20 -19 -20 -19 0 -24 -5 -24 -25 0 -20 -5 -25 -25
-25 -18 0 -25 -5 -25 -20 0 -13 -7 -20 -20 -20 -13 0 -20 -7 -20 -20 0 -13 -7
-20 -20 -20 -13 0 -20 -7 -20 -20 0 -13 -7 -20 -20 -20 -13 0 -20 -7 -20 -20
0 -13 -7 -20 -20 -20 -13 0 -20 -7 -20 -20 0 -13 -7 -20 -20 -20 -15 0 -20 -7
-20 -25 0 -20 -5 -25 -25 -25 -18 0 -25 -5 -25 -20 0 -13 -7 -20 -20 -20 -13
0 -20 -7 -20 -20 0 -13 -7 -20 -20 -20 -13 0 -20 -7 -20 -20 0 -13 -7 -20 -20
-20 -13 0 -20 -7 -20 -20 0 -13 -7 -20 -20 -20 -13 0 -20 -7 -20 -20 0 -13 -7
-20 -20 -20 -17 0 -20 -7 -20 -45 0 -41 -2 -45 -25 -45 -18 0 -25 -5 -25 -20
0 -13 -7 -20 -20 -20 -13 0 -20 -7 -20 -20 0 -13 -7 -20 -20 -20 -13 0 -20 -7
-20 -20 0 -13 -7 -20 -20 -20 -13 0 -20 -7 -20 -20 0 -13 -7 -20 -20 -20 -15
0 -20 -7 -20 -25 0 -18 -5 -25 -20 -25 -15 0 -20 -7 -20 -26 0 -20 -4 -25 -16
-20 -14 5 -15 4 -4 -9 14 -16 6 -21 -40 -27 -21 -3 -25 -9 -28 -40 -3 -30 -7
-38 -23 -38 -12 0 -19 -7 -19 -20 0 -14 -7 -20 -21 -20 -15 0 -20 -6 -19 -22
5 -53 0 -68 -20 -68 -13 0 -20 -7 -20 -20 0 -13 -7 -20 -20 -20 -13 0 -20 -7
-20 -20 0 -15 -7 -20 -25 -20 -20 0 -25 -5 -25 -24 0 -19 -4 -23 -20 -19 -18
5 -20 0 -20 -41 0 -39 -3 -46 -20 -46 -17 0 -20 -7 -20 -40 0 -33 -3 -40 -20
-40 -13 0 -20 -7 -20 -20 0 -13 -7 -20 -20 -20 -16 0 -20 -7 -20 -31 0 -22 -5
-32 -20 -36 -14 -4 -20 -14 -20 -34 0 -24 -4 -29 -25 -29 -18 0 -25 -5 -25
-20 0 -13 -7 -20 -20 -20 -16 0 -20 -7 -20 -34 0 -26 -5 -36 -20 -41 -11 -3
-20 -15 -20 -26 0 -12 -7 -19 -20 -19 -18 0 -20 -7 -20 -65 0 -58 -2 -65 -20
-65 -17 0 -20 -7 -20 -40 0 -33 -3 -40 -20 -40 -17 0 -20 -7 -20 -40 0 -36 -2
-40 -25 -40 -23 0 -25 -4 -25 -41 0 -32 -4 -42 -20 -46 -16 -4 -20 -14 -20
-44 0 -32 -3 -39 -20 -39 -13 0 -20 -7 -20 -20 0 -11 -6 -20 -14 -20 -19 0
-26 -22 -26 -81 0 -42 -3 -49 -20 -49 -15 0 -20 -7 -20 -25 0 -19 -5 -25 -22
-26 -18 -1 -19 -2 -5 -6 9 -2 15 -9 11 -14 -3 -5 -10 -7 -15 -4 -5 4 -9 -14
-9 -39 0 -42 -2 -46 -25 -46 -23 0 -25 -4 -25 -41 0 -32 -4 -42 -20 -46 -16
-4 -20 -14 -20 -44 0 -32 -3 -39 -20 -39 -18 0 -20 -7 -20 -61 0 -52 -3 -62
-20 -66 -11 -3 -20 -14 -20 -24 0 -12 -7 -19 -20 -19 -18 0 -20 -7 -20 -80 0
-73 -2 -80 -20 -80 -15 0 -20 -7 -20 -25 0 -20 -5 -25 -25 -25 -25 0 -25 -1
-25 -80 0 -73 -2 -80 -20 -80 -17 0 -20 -7 -20 -45 0 -38 -3 -45 -20 -45 -18
0 -20 -7 -20 -80 0 -73 -2 -80 -20 -80 -18 0 -20 -7 -20 -60 0 -57 -5 -66 -32
-61 -5 0 -8 -28 -8 -64 0 -58 -2 -65 -20 -65 -19 0 -20 -7 -20 -125 l0 -125
-25 0 c-23 0 -25 -4 -25 -45 0 -38 -3 -45 -20 -45 -19 0 -20 -7 -20 -165 0
-158 -1 -165 -20 -165 -17 0 -20 -7 -20 -40 0 -33 -3 -40 -20 -40 -20 0 -20
-7 -21 -512 -1 -282 -4 -503 -6 -490 -4 18 -7 20 -18 8 -21 -20 -22 -451 -1
-459 10 -4 16 2 19 16 2 12 5 -193 6 -456 1 -399 3 -481 15 -493 11 -11 16
-11 19 -1 3 6 6 -16 6 -50 1 -56 3 -63 21 -63 18 0 20 -7 20 -85 0 -78 -2 -85
-20 -85 -18 0 -20 -7 -20 -65 0 -58 2 -65 20 -65 18 0 20 -7 20 -75 0 -69 4
-80 28 -72 4 1 9 -47 12 -108 5 -102 7 -110 25 -110 16 0 21 -8 23 -42 3 -35
7 -43 23 -43 24 0 25 -27 2 -33 -17 -4 -17 -5 0 -6 14 -1 17 -11 17 -72 0 -64
2 -70 18 -64 17 5 19 -1 21 -57 2 -64 5 -73 24 -73 8 0 13 -25 15 -70 2 -48 6
-65 12 -55 8 12 10 10 10 -7 0 -22 -4 -23 -70 -23 -63 0 -70 2 -70 20 0 18 -7
20 -66 20 -61 0 -66 1 -61 20 5 18 0 20 -39 20 -37 0 -44 3 -44 20 0 17 -7 20
-49 20 -43 0 -49 2 -44 19 4 16 -2 19 -42 19 -50 1 -75 15 -75 40 0 8 -3 12
-7 9 -3 -4 -31 15 -62 41 -71 60 -590 521 -1012 900 -75 67 -139 122 -142 122
-2 0 -30 -31 -60 -68 -87 -108 -236 -275 -268 -300 -23 -19 -29 -20 -29 -8 0
9 -3 15 -7 15 -5 -1 -25 -1 -45 0 -34 1 -38 4 -38 26 0 23 -4 25 -40 25 -33 0
-40 3 -40 20 0 18 -7 20 -65 20 -58 0 -65 2 -65 20 0 18 -7 20 -60 20 -53 0
-60 2 -60 20 0 17 -7 20 -40 20 -33 0 -40 3 -40 20 0 17 -7 20 -49 20 -45 0
-49 2 -44 21 4 14 1 20 -8 19 -8 -1 -26 -2 -41 -1 -23 1 -28 6 -28 26 0 24 -2
25 -65 25 -58 0 -65 2 -65 20 0 13 -7 20 -20 20 -13 0 -20 7 -20 20 0 17 -7
20 -44 20 -54 0 -76 8 -76 26 0 10 -13 14 -45 14 -38 0 -45 3 -45 20 0 13 -7
20 -20 20 -13 0 -20 7 -20 20 0 17 -7 20 -40 20 -36 0 -40 3 -40 25 0 23 -4
25 -40 25 -33 0 -40 3 -40 20 0 17 -7 20 -45 20 -38 0 -45 3 -45 20 0 17 -7
20 -40 20 -33 0 -40 3 -40 20 0 17 -7 20 -45 20 -43 0 -45 1 -35 20 9 18 8 20
-15 20 -33 0 -41 -22 -19 -55 16 -25 19 -25 24 -9 6 15 8 14 14 -9 3 -16 4
-32 1 -37 -4 -6 5 -10 18 -10 21 0 24 -4 19 -22 -4 -18 -2 -20 16 -16 19 5 22
2 22 -23 0 -22 5 -29 20 -29 13 0 20 -7 20 -20 0 -13 7 -20 20 -20 13 0 20 -7
20 -20 0 -13 7 -20 20 -20 13 0 20 -7 20 -20 0 -15 7 -20 25 -20 18 0 25 -5
25 -20 0 -13 7 -20 20 -20 13 0 20 -7 20 -20 0 -13 7 -20 20 -20 15 0 20 -7
20 -25 0 -19 5 -25 23 -26 21 -1 21 -1 -3 -9 -14 -4 -19 -8 -12 -9 7 -1 10 -5
7 -11 -4 -6 8 -10 29 -10 29 0 36 -4 36 -20 0 -13 7 -20 20 -20 13 0 20 -7 20
-20 0 -15 7 -20 25 -20 18 0 25 -5 25 -20 0 -13 7 -20 20 -20 13 0 20 -7 20
-20 0 -13 7 -20 20 -20 15 0 20 -7 20 -25 0 -18 5 -25 20 -25 13 0 20 -7 20
-20 0 -13 7 -20 20 -20 13 0 20 -7 20 -20 0 -13 7 -20 20 -20 13 0 20 -7 20
-20 0 -15 7 -20 25 -20 18 0 25 -5 25 -20 0 -17 7 -20 40 -20 33 0 40 -3 40
-20 0 -13 7 -20 20 -20 15 0 20 -7 20 -25 0 -18 5 -25 20 -25 13 0 20 -7 20
-20 0 -13 7 -20 20 -20 13 0 20 -7 20 -20 0 -15 7 -20 25 -20 18 0 25 -5 25
-20 0 -13 7 -20 20 -20 13 0 20 -7 20 -20 0 -13 7 -20 20 -20 11 0 20 -4 20
-8 0 -9 -141 -117 -235 -180 -493 -328 -1023 -503 -1618 -531 -1892 -89 -3167
1195 -3167 3189 0 782 193 1467 568 2010 254 368 640 697 1047 891 636 302
1461 377 2180 198 477 -119 904 -343 1330 -698 131 -109 454 -437 570 -578 85
-104 102 -120 115 -109 21 17 1170 1040 1406 1251 104 93 308 275 452 404
l262 233 0 597 0 598 -132 121 c-752 685 -1621 1164 -2645 1456 -1230 351
-2713 410 -4008 160 -1104 -214 -2120 -656 -2953 -1283 -196 -148 -377 -299
-513 -429 -57 -54 -117 -110 -132 -123 -48 -41 -354 -376 -450 -493 -769 -940
-1244 -2068 -1396 -3316 -40 -329 -46 -445 -46 -900 1 -462 6 -560 55 -945 60
-469 195 -1017 358 -1458 240 -645 595 -1263 1029 -1792 242 -296 613 -663
908 -901 1571 -1264 3700 -1798 5995 -1503 876 113 1744 378 2454 750 88 46
141 68 144 61 2 -7 23 -12 48 -12 37 0 44 -3 44 -20 0 -13 7 -20 20 -20 13 0
20 -7 20 -20 0 -17 7 -20 40 -20 33 0 40 -3 40 -20 0 -13 7 -20 20 -20 13 0
20 -7 20 -20 0 -18 7 -20 65 -20 58 0 65 -2 65 -20 0 -13 7 -20 20 -20 15 0
20 -7 20 -25 0 -22 4 -25 40 -25 33 0 40 -3 40 -20 0 -17 7 -20 45 -20 38 0
45 -3 45 -20 0 -13 7 -20 20 -20 13 0 20 -7 20 -20 0 -17 7 -20 43 -21 38 0
99 -17 70 -18 -7 -1 -13 -5 -13 -11 0 -5 3 -9 8 -9 32 5 52 -3 52 -21 0 -17 7
-20 45 -20 41 0 45 -2 45 -25 0 -25 29 -37 31 -12 0 6 5 -3 10 -20 9 -32 11
-33 64 -33 48 0 55 -2 55 -20 0 -17 7 -20 45 -20 38 0 45 -3 45 -20 0 -22 25
-28 33 -7 4 10 6 10 6 0 1 -7 10 -13 21 -13 13 0 20 -7 20 -20 0 -18 7 -20 65
-20 58 0 65 -2 65 -20 0 -15 7 -20 26 -20 19 0 25 -4 20 -15 -4 -10 1 -15 14
-15 11 0 20 -4 20 -10 0 -6 35 -10 85 -10 78 0 85 -2 85 -20 0 -13 7 -20 20
-20 13 0 20 -7 20 -20 0 -18 7 -20 64 -20 38 0 68 -5 72 -12 4 -7 3 -8 -4 -4
-7 4 -12 1 -12 -8 0 -19 26 -21 33 -3 4 10 6 10 6 0 1 -7 12 -13 26 -13 18 0
25 -5 25 -20 0 -18 7 -20 60 -20 53 0 60 -2 60 -20 0 -13 7 -20 20 -20 15 0
20 -7 20 -25 0 -25 1 -25 85 -25 78 0 85 -2 85 -20 0 -18 7 -20 60 -20 53 0
60 -2 60 -20 0 -17 7 -20 45 -20 38 0 45 -3 45 -20 0 -18 7 -20 60 -20 53 0
60 -2 60 -20 0 -20 21 -26 73 -21 11 2 17 -5 17 -18 0 -19 6 -21 73 -22 39 -1
75 -1 80 0 4 0 7 -10 7 -24 0 -18 5 -25 20 -25 13 0 20 -7 20 -20 0 -19 7 -20
101 -20 92 0 101 -2 106 -20 3 -11 14 -20 24 -20 12 0 19 -7 19 -20 0 -19 7
-20 105 -20 98 0 105 -1 105 -20 0 -18 7 -20 54 -20 31 0 58 -5 62 -12 5 -8 2
-9 -9 -5 -11 4 -17 1 -17 -7 0 -7 8 -13 18 -13 9 1 45 0 80 -1 59 -2 62 -3 62
-27 l0 -25 105 0 c98 0 105 -1 105 -20 0 -17 7 -20 40 -20 33 0 40 -3 40 -20
0 -19 7 -20 105 -20 98 0 105 -1 105 -20 0 -18 7 -20 65 -20 58 0 65 -2 65
-20 0 -19 7 -20 125 -20 118 0 125 -1 125 -20 0 -17 7 -20 40 -20 36 0 40 -2
40 -25 l0 -25 165 0 c158 0 165 -1 165 -20 0 -19 7 -20 105 -20 98 0 105 -1
105 -20 0 -19 7 -20 125 -20 118 0 125 -1 125 -20 0 -19 7 -20 125 -20 118 0
125 -1 125 -20 0 -18 7 -20 85 -20 78 0 85 -2 85 -20 0 -19 7 -20 165 -20
l165 0 0 -25 c0 -24 2 -25 65 -25 49 0 65 -3 65 -14 0 -21 33 -26 188 -26 135
0 142 -1 142 -20 0 -18 7 -20 65 -20 37 0 65 -4 65 -10 0 -5 -10 -10 -22 -10
-12 0 -18 -3 -14 -7 4 -5 84 -10 178 -13 148 -4 171 -7 179 -22 8 -14 23 -18
69 -18 53 0 60 -2 60 -20 0 -19 7 -20 230 -20 l230 0 0 -25 0 -25 363 -1 c199
-1 351 -5 337 -9 -16 -5 4 -8 60 -7 78 0 81 1 30 7 -30 4 81 7 247 8 286 2
302 3 308 21 3 10 16 22 28 25 12 3 122 6 245 6 215 0 222 1 222 20 0 18 7 20
60 20 53 0 60 2 60 20 0 19 7 20 233 21 127 1 222 4 210 6 -13 2 -23 11 -23
18 0 12 29 15 148 17 133 3 147 5 146 21 -2 16 21 17 352 17 356 0 360 0 355
33 0 4 46 7 103 7 l105 0 -5 25 -4 25 210 0 c203 0 210 1 210 20 0 18 7 20 84
20 75 0 84 2 89 20 5 19 14 20 186 20 174 0 181 1 181 20 0 18 7 20 70 20 60
0 70 3 70 18 0 13 10 18 48 20 38 2 45 1 35 -9 -22 -22 -14 -29 32 -29 38 0
45 3 45 20 0 18 7 20 60 20 53 0 60 2 60 20 0 19 7 20 210 20 l210 0 0 25 c0
23 4 25 40 25 33 0 40 3 40 20 0 19 7 20 105 20 98 0 105 1 105 20 0 17 7 20
41 20 36 0 41 2 36 20 -5 19 0 20 104 20 102 0 109 1 109 20 0 20 17 25 64 20
14 -1 18 3 13 19 -5 20 -1 21 84 21 88 0 89 0 89 25 0 25 1 25 85 25 78 0 85
2 85 20 0 17 7 20 40 20 33 0 40 3 40 20 0 18 7 20 85 20 78 0 85 2 85 20 0
13 7 20 20 20 13 0 20 7 20 20 0 18 7 20 85 20 78 0 85 2 85 20 0 20 17 25 63
21 12 -2 17 5 17 23 0 25 2 26 68 27 37 1 70 1 75 0 4 0 7 4 7 10 0 6 -7 9
-15 5 -8 -3 -15 -1 -15 3 0 15 33 22 42 9 6 -10 8 -10 8 0 0 6 9 12 20 12 13
0 20 7 20 20 0 18 7 20 60 20 53 0 60 2 60 20 0 17 7 20 44 20 35 0 45 4 49
20 4 15 14 20 41 20 31 0 36 3 36 23 0 18 2 19 10 7 6 -10 10 -11 10 -2 0 8
17 12 50 12 47 0 50 2 50 25 0 20 5 25 24 25 15 0 26 7 29 20 3 11 9 20 14 19
4 -1 38 -1 76 0 60 1 67 3 67 21 0 14 7 20 21 20 16 0 20 5 16 20 -5 19 0 20
64 20 62 0 69 2 69 20 0 17 7 20 40 20 28 0 40 4 40 14 0 8 -6 17 -12 19 -7 3
22 6 65 6 75 1 77 2 77 26 0 23 4 25 40 25 33 0 40 3 40 20 0 17 7 20 40 20
33 0 40 3 40 20 0 17 7 20 45 20 38 0 45 3 45 20 0 13 7 20 20 20 13 0 20 7
20 20 0 17 7 20 40 20 33 0 40 3 40 20 0 13 7 20 19 20 12 0 20 9 23 25 5 25
4 25 -58 25 -62 0 -64 -1 -64 -25 l0 -25 -199 0 c-121 0 -202 -4 -206 -10 -3
-5 0 -7 8 -4 8 3 14 -2 14 -11 0 -13 -28 -15 -218 -15 -207 0 -217 -1 -222
-20 -5 -18 -15 -20 -194 -22 -159 -3 -188 -5 -188 -18 0 -13 -40 -16 -280 -20
-184 -3 -275 -8 -265 -15 27 -17 -28 -23 -250 -25 -125 -1 -205 -5 -190 -10
24 -8 24 -8 3 -9 -13 -1 -23 -5 -23 -11 0 -6 -124 -10 -353 -10 -309 0 -354 2
-354 15 0 10 6 13 19 9 15 -4 18 0 18 25 0 26 4 31 25 31 18 0 25 5 25 20 0
13 7 20 20 20 13 0 20 7 20 20 0 13 7 20 20 20 13 0 20 7 20 20 0 13 7 20 20
20 15 0 20 7 20 25 0 19 5 25 21 25 12 0 23 8 26 20 4 16 14 20 44 20 32 0 39
3 39 20 0 13 7 20 20 20 13 0 20 7 20 20 0 13 7 20 20 20 13 0 20 7 20 20 0
13 7 20 20 20 13 0 20 7 20 20 0 13 7 20 20 20 15 0 20 7 20 25 0 18 5 25 20
25 13 0 20 7 20 20 0 15 7 20 25 20 18 0 25 5 25 20 0 13 7 20 20 20 13 0 20
7 20 20 0 13 7 20 20 20 13 0 20 7 20 20 0 13 7 20 20 20 13 0 20 7 20 20 0
13 7 20 20 20 15 0 20 7 20 25 0 18 5 25 20 25 17 0 20 7 20 40 0 36 3 40 25
40 18 0 25 5 25 20 0 13 7 20 20 20 13 0 20 7 20 20 0 13 7 20 20 20 17 0 20
7 20 45 0 38 3 45 20 45 13 0 20 7 20 20 0 13 7 20 20 20 13 0 20 7 20 20 0
13 7 20 20 20 13 0 20 7 20 20 0 15 7 20 25 20 23 0 25 4 25 40 0 33 3 40 20
40 15 0 20 7 20 25 0 18 5 25 20 25 13 0 20 7 20 20 0 13 7 20 20 20 13 0 20
7 20 20 0 13 7 20 20 20 17 0 20 7 20 40 0 33 3 40 20 40 13 0 20 7 20 20 0
15 7 20 25 20 20 0 25 5 25 25 0 18 5 25 20 25 14 0 20 7 20 24 0 19 4 23 20
19 18 -5 20 0 20 36 0 34 3 41 20 41 13 0 20 7 20 20 0 13 7 20 20 20 15 0 20
7 20 25 0 14 3 24 8 24 22 -4 32 3 32 21 0 15 7 20 25 20 23 0 25 4 25 40 0
33 3 40 20 40 13 0 20 7 20 20 0 13 7 20 20 20 17 0 20 7 20 40 0 33 3 40 20
40 15 0 20 7 20 25 0 18 5 25 20 25 17 0 20 7 20 40 0 33 3 40 20 40 17 0 20
7 20 40 0 36 3 40 25 40 18 0 25 5 25 20 0 13 7 20 20 20 18 0 20 7 20 59 0
75 7 96 26 80 11 -9 14 -8 13 7 -5 46 1 64 21 64 17 0 20 7 20 45 0 38 3 45
20 45 17 0 20 7 20 40 0 33 3 40 20 40 17 0 20 7 20 40 0 36 3 40 25 40 18 0
25 5 25 20 0 13 7 20 20 20 18 0 20 7 20 65 0 58 2 65 20 65 16 0 20 7 20 34
0 26 5 36 20 41 14 5 20 15 20 38 0 38 13 62 29 53 8 -5 11 13 11 58 0 59 2
66 20 66 13 0 20 7 20 20 0 15 7 20 25 20 25 0 25 1 25 85 0 78 2 85 20 85 13
0 20 7 20 20 0 13 7 20 20 20 18 0 20 7 20 85 0 78 2 85 20 85 17 0 20 7 20
40 0 33 3 40 20 40 18 0 20 7 20 65 0 58 2 65 20 65 18 0 20 7 20 80 0 80 0
80 25 76 24 -4 25 -3 25 45 0 42 3 49 20 49 19 0 20 7 20 100 0 93 1 100 20
100 18 0 20 7 20 61 0 52 3 62 20 66 19 5 20 14 20 129 0 117 1 124 20 124 17
0 20 7 20 40 0 33 3 40 20 40 19 0 20 8 22 188 3 185 3 187 26 190 21 3 22 8
22 83 0 72 2 79 20 79 19 0 20 7 20 89 0 84 -1 89 -20 84 -18 -5 -20 0 -20 40
0 41 2 45 20 42 20 -4 20 -1 20 622 -1 612 -1 625 -20 630 -17 5 -20 14 -20
64 0 52 2 59 20 59 18 0 20 7 20 65 0 58 -2 65 -20 65 -18 0 -20 7 -20 80 0
79 0 80 -25 80 l-25 0 0 176 c0 165 -1 176 -18 172 -15 -4 -19 2 -21 31 -1 20
-6 40 -11 45 -6 6 -10 15 -10 21 0 5 5 3 10 -5 8 -13 10 -12 10 3 0 19 -26 23
-33 5 -3 -7 -6 46 -6 117 -1 132 -7 175 -22 175 -5 0 -6 -8 -3 -17 5 -16 4
-16 -5 -2 -5 8 -11 36 -13 62 -3 43 -8 52 -30 48 -5 0 -8 46 -8 104 0 98 -1
105 -20 105 -17 0 -20 7 -20 45 0 41 -2 45 -25 45 -24 0 -25 3 -25 60 0 53 -2
60 -20 60 -18 0 -20 7 -20 65 0 58 -2 65 -20 65 -18 0 -20 7 -20 60 0 53 -2
60 -20 60 -18 0 -20 7 -20 85 0 78 -2 85 -20 85 -13 0 -20 7 -20 20 0 13 -7
20 -20 20 -17 0 -19 8 -22 83 -3 78 -4 82 -25 80 -18 -2 -23 2 -23 22 0 18 -5
25 -20 25 -18 0 -20 7 -20 60 0 53 -2 60 -20 60 -15 0 -20 7 -20 25 0 18 -5
25 -20 25 -17 0 -20 7 -20 40 0 33 -3 40 -20 40 -17 0 -20 7 -20 45 0 29 -4
45 -12 45 -9 0 -8 4 2 10 13 9 13 10 0 11 -8 1 -18 1 -22 0 -5 0 -8 12 -8 29
0 25 -4 30 -25 30 -24 0 -25 3 -25 60 0 53 -2 60 -20 60 -13 0 -20 7 -20 20 0
13 -7 20 -20 20 -18 0 -20 7 -20 65 0 58 -2 65 -20 65 -13 0 -20 7 -20 20 0
13 -7 20 -20 20 -17 0 -20 7 -20 41 0 35 9 52 74 132 139 173 619 713 1040
1172 1063 1155 1267 1362 1516 1537 201 140 384 182 501 115 106 -61 130 -276
50 -451 -15 -34 -91 -168 -169 -299 -803 -1349 -1357 -2410 -1541 -2949 -87
-257 -110 -405 -91 -609 16 -175 43 -287 100 -405 101 -209 262 -305 515 -305
404 -1 825 269 1342 861 60 69 143 164 184 211 855 990 1089 1247 1640 1804
717 724 1070 1058 1690 1601 349 306 989 844 1003 844 3 0 -20 -42 -51 -92
-51 -85 -281 -464 -571 -943 -506 -836 -739 -1235 -949 -1625 -397 -738 -598
-1245 -659 -1665 -22 -149 -25 -471 -6 -560 60 -274 210 -497 423 -630 290
-180 656 -155 1169 79 520 238 1135 674 2013 1425 l227 195 0 463 c0 255 -3
463 -6 463 -3 0 -34 -22 -68 -49 -199 -158 -450 -296 -636 -350 -107 -32 -282
-39 -386 -16 -261 57 -472 245 -539 480 -68 238 -13 612 134 920 85 177 183
321 410 605 254 315 389 472 948 1104 l143 161 0 1156 0 1157 -22 14 c-35 22
-142 41 -184 33 -106 -19 -301 -152 -627 -423 -330 -275 -788 -683 -1352
-1202 -949 -875 -2355 -2158 -2805 -2560 -58 -52 -295 -264 -526 -471 -462
-413 -1118 -995 -1149 -1019 -18 -13 -19 -13 -9 0 6 8 119 159 251 335 870
1163 1461 1999 1925 2725 561 878 922 1595 967 1922 20 147 -14 365 -82 510
-100 218 -280 381 -497 454 -79 27 -96 29 -235 29 -170 0 -282 -20 -458 -82
-395 -136 -808 -412 -1487 -988 -527 -448 -755 -667 -2175 -2089 -720 -721
-1368 -1363 -1440 -1425 -144 -127 -266 -221 -283 -221 -7 0 -12 11 -12 25 0
18 -5 25 -20 25 -13 0 -20 7 -20 20 0 13 -7 20 -20 20 -19 0 -20 7 -20 180 l0
181 -78 -60 c-63 -47 -83 -58 -105 -54 -18 4 -27 12 -27 24 0 14 -7 19 -25 19
-18 0 -25 5 -25 20 0 13 -7 20 -20 20 -13 0 -20 7 -20 19 0 11 -6 21 -12 24
-18 6 111 259 224 440 258 409 480 681 804 984 728 679 1321 1433 1414 1798
78 303 -153 535 -600 601 -373 54 -741 -53 -1075 -315 -303 -238 -722 -731
-1264 -1489 -229 -320 -418 -613 -605 -939 l-48 -83 -44 0 c-37 0 -44 3 -44
20 0 17 -7 20 -40 20 -36 0 -40 3 -40 25 0 18 -5 25 -20 25 -13 0 -20 7 -20
20 0 17 -7 20 -45 20 -38 0 -45 3 -45 20 0 13 -7 20 -20 20 -13 0 -20 7 -20
20 0 17 -7 20 -40 20 -33 0 -40 3 -40 20 0 13 -7 20 -20 20 -13 0 -20 7 -20
20 0 17 -7 20 -45 20 -41 0 -45 2 -45 25 0 18 -5 25 -20 25 -14 0 -20 7 -20
21 0 13 -6 20 -17 18 -46 -4 -63 1 -63 21 0 17 -7 20 -40 20 -33 0 -40 3 -40
20 0 17 -7 20 -42 21 -33 0 -38 2 -23 9 13 6 15 9 5 9 -13 1 -13 2 0 11 10 7
-11 10 -67 10 -76 0 -83 2 -83 20 0 17 -7 20 -45 20 -41 0 -45 2 -45 25 0 24
-3 25 -60 25 -53 0 -60 2 -60 20 0 13 -7 20 -20 20 -13 0 -20 7 -20 20 0 18
-7 20 -65 20 -58 0 -65 2 -65 20 0 18 -7 20 -60 20 -53 0 -60 2 -60 20 0 13
-7 20 -20 20 -13 0 -20 7 -20 20 0 18 -7 20 -64 20 -59 0 -65 2 -68 23 -2 12
-10 23 -18 23 -8 1 -23 2 -32 3 -15 1 -16 5 -5 29 12 28 162 285 584 1002 624
1060 1004 1712 1363 2340 300 525 415 723 638 1100 623 1049 851 1498 1037
2042 166 482 235 900 236 1418 1 304 -20 467 -84 655 -62 182 -177 348 -282
409 -31 18 -136 50 -148 45 -1 0 -30 -7 -63 -14z m-5402 -9142 c-9 -16 -89
-135 -176 -266 l-159 -238 -136 -69 c-419 -211 -734 -459 -869 -684 -175 -289
-228 -732 -140 -1161 66 -325 230 -681 463 -1005 33 -47 64 -90 68 -97 4 -6
-67 -200 -159 -430 -395 -994 -720 -1882 -908 -2483 -43 -135 -84 -265 -92
-289 -12 -38 -14 -328 -14 -2008 l0 -1963 46 -93 c213 -426 449 -681 708 -767
293 -97 779 99 1406 569 326 244 690 594 1066 1026 100 115 346 425 483 609
612 824 974 1483 1231 2243 238 701 322 1289 350 2448 6 230 11 420 13 421 10
8 280 154 282 152 1 -2 21 -52 45 -113 52 -131 153 -337 223 -455 154 -259
340 -437 517 -496 83 -28 217 -26 295 5 209 84 348 249 1070 1269 98 139 118
161 130 141 4 -5 1 -8 -6 -7 -6 2 -14 -3 -16 -9 -3 -8 4 -13 16 -13 18 0 21
-6 21 -40 0 -36 3 -40 25 -40 18 0 25 -5 25 -20 0 -13 7 -20 20 -20 17 0 20
-7 20 -45 0 -38 3 -45 20 -45 17 0 20 -7 20 -40 0 -33 3 -40 20 -40 17 0 20
-7 20 -40 0 -33 3 -40 20 -40 17 0 20 -7 20 -45 0 -38 3 -45 20 -45 16 0 19
-8 22 -57 3 -53 5 -58 26 -57 20 1 22 -3 22 -47 0 -42 3 -49 20 -49 18 0 20
-7 20 -61 0 -56 2 -60 20 -54 19 6 20 2 20 -64 0 -64 2 -71 20 -71 18 0 20 -7
20 -60 0 -53 2 -60 20 -60 19 0 20 -7 20 -105 0 -97 1 -105 19 -105 16 0 20
-8 23 -42 3 -38 6 -43 26 -40 22 3 22 1 22 -102 0 -99 1 -106 20 -106 18 0 20
-7 20 -70 0 -49 4 -70 13 -71 9 0 9 -2 -1 -6 -6 -2 -10 -9 -7 -13 3 -5 12 -7
20 -3 13 4 15 -9 15 -81 0 -79 2 -86 20 -86 19 0 20 -7 20 -105 0 -98 1 -105
20 -105 19 0 20 -7 20 -104 0 -95 2 -104 20 -109 19 -5 20 -14 21 -254 0 -136
4 -257 9 -268 7 -17 9 -17 9 -2 1 9 6 17 12 17 5 0 8 -4 4 -9 -3 -5 -1 -12 5
-16 6 -4 10 -165 10 -466 l0 -459 -25 0 c-15 0 -25 -5 -24 -12 1 -7 1 -113 0
-235 -1 -216 -1 -221 -21 -216 -19 5 -20 0 -20 -121 0 -119 -1 -126 -20 -126
-19 0 -20 -7 -20 -125 0 -118 -1 -125 -20 -125 -18 0 -20 -7 -21 -87 -1 -62
-4 -79 -9 -58 l-8 30 -1 -27 c0 -16 -5 -28 -11 -28 -6 0 -10 -27 -10 -60 0
-53 -2 -60 -20 -60 -19 0 -20 -7 -20 -105 l0 -105 -25 0 c-22 0 -25 -4 -25
-40 0 -33 -3 -40 -20 -40 -19 0 -20 -7 -20 -109 0 -104 -1 -109 -20 -104 -12
3 -20 0 -20 -6 0 -7 5 -9 10 -6 6 3 10 1 10 -4 0 -6 -4 -11 -10 -11 -5 0 -10
-22 -10 -50 0 -43 -3 -50 -20 -50 -18 0 -20 -7 -20 -75 0 -68 -2 -75 -20 -75
-15 0 -20 -7 -20 -25 0 -18 -5 -25 -20 -25 -18 0 -20 -7 -20 -65 0 -63 -1 -65
-25 -65 -22 0 -25 -4 -25 -40 0 -33 -3 -40 -20 -40 -17 0 -20 -7 -20 -45 0
-38 -3 -45 -20 -45 -18 0 -20 -7 -20 -60 0 -53 -2 -60 -20 -60 -17 0 -20 -7
-20 -40 0 -33 -3 -40 -20 -40 -17 0 -20 -7 -20 -45 0 -38 -3 -45 -20 -45 -14
0 -20 -7 -21 -25 -3 -47 -4 -50 -24 -50 -16 0 -21 -8 -23 -42 -3 -35 -7 -43
-23 -43 -14 0 -19 -7 -19 -25 0 -18 -5 -25 -20 -25 -17 0 -20 -7 -20 -40 0
-33 -3 -40 -20 -40 -13 0 -20 -7 -20 -20 0 -13 -7 -20 -20 -20 -17 0 -20 -7
-20 -40 0 -33 -3 -40 -20 -40 -17 0 -20 -7 -20 -45 0 -41 -2 -45 -25 -45 -18
0 -25 -5 -25 -20 0 -13 -7 -20 -20 -20 -17 0 -20 -7 -20 -40 0 -33 -3 -40 -20
-40 -13 0 -20 -7 -20 -20 0 -13 -7 -20 -20 -20 -17 0 -20 -7 -20 -45 0 -38 -3
-45 -20 -45 -13 0 -20 -7 -20 -20 0 -13 -7 -20 -20 -20 -17 0 -20 -7 -20 -40
0 -36 -2 -40 -25 -40 -20 0 -25 -5 -25 -24 0 -14 -4 -28 -10 -31 -5 -3 -10 -1
-10 4 0 6 -5 11 -11 11 -6 0 -10 -10 -9 -22 5 -61 0 -88 -17 -89 -15 0 -15 -2
2 -9 19 -8 19 -9 -2 -9 -16 -1 -23 -7 -23 -21 0 -13 -7 -20 -20 -20 -17 0 -20
-7 -20 -40 0 -33 -3 -40 -20 -40 -15 0 -20 -7 -20 -25 0 -18 -5 -25 -20 -25
-13 0 -20 -7 -20 -20 0 -15 -7 -20 -25 -20 -18 0 -25 -5 -25 -20 0 -13 -7 -20
-20 -20 -13 0 -20 -7 -20 -20 0 -13 -7 -20 -20 -20 -13 0 -20 -7 -20 -20 0
-13 -7 -20 -20 -20 -13 0 -20 -7 -20 -20 0 -13 -7 -20 -20 -20 -15 0 -20 -7
-20 -25 0 -18 -5 -25 -20 -25 -15 0 -20 -7 -20 -26 0 -25 -20 -54 -38 -54 -5
0 -12 -9 -15 -20 -3 -11 -12 -20 -21 -20 -9 0 -16 -8 -16 -20 0 -13 -7 -20
-20 -20 -13 0 -20 -7 -20 -20 0 -13 -7 -20 -20 -20 -15 0 -20 -7 -20 -25 0
-18 -5 -25 -20 -25 -13 0 -20 -7 -20 -20 0 -13 -7 -20 -20 -20 -13 0 -20 -7
-20 -20 0 -15 -7 -20 -25 -20 -18 0 -25 -5 -25 -20 0 -13 -7 -20 -20 -20 -13
0 -20 -7 -20 -20 0 -13 -7 -20 -20 -20 -13 0 -20 -7 -20 -20 0 -13 -7 -20 -20
-20 -15 0 -20 -7 -20 -25 0 -18 -5 -25 -20 -25 -13 0 -20 -7 -20 -20 0 -13 -7
-20 -20 -20 -13 0 -20 -7 -20 -20 0 -15 -7 -20 -25 -20 -18 0 -25 -5 -25 -20
0 -13 -7 -20 -20 -20 -13 0 -20 -7 -20 -20 0 -13 -7 -20 -20 -20 -13 0 -20 -7
-20 -20 0 -17 -7 -20 -40 -20 -36 0 -40 -2 -40 -25 0 -18 -5 -25 -20 -25 -13
0 -20 -7 -20 -20 0 -15 -7 -20 -25 -20 -18 0 -25 -5 -25 -20 0 -13 -7 -20 -20
-20 -13 0 -20 -7 -20 -20 0 -20 -17 -26 -63 -22 -12 1 -17 -4 -15 -16 2 -11
-5 -18 -19 -20 -15 -2 -23 -10 -23 -23 0 -12 -7 -19 -20 -19 -15 0 -20 -7 -20
-25 0 -20 -5 -25 -25 -25 -18 0 -25 -5 -25 -20 0 -17 -7 -20 -40 -20 -33 0
-40 -3 -40 -20 0 -13 -7 -20 -20 -20 -13 0 -20 -7 -20 -20 0 -13 -7 -20 -20
-20 -13 0 -20 -7 -20 -20 0 -17 -7 -20 -45 -20 -38 0 -45 -3 -45 -20 0 -13 -7
-20 -20 -20 -15 0 -20 -7 -20 -25 0 -22 -4 -25 -40 -25 -33 0 -40 -3 -40 -20
0 -13 -7 -20 -20 -20 -13 0 -20 -7 -20 -20 0 -13 -7 -20 -20 -20 -13 0 -20 -7
-20 -20 0 -15 -7 -20 -25 -20 -15 0 -25 -6 -25 -14 0 -9 -15 -17 -40 -21 -30
-5 -40 -11 -40 -26 0 -16 -7 -19 -40 -19 -36 0 -40 -2 -40 -25 0 -18 -5 -25
-20 -25 -13 0 -20 -7 -20 -20 0 -17 -7 -20 -45 -20 -38 0 -45 -3 -45 -20 0
-18 -7 -20 -60 -20 -53 0 -60 -2 -60 -20 0 -18 -7 -20 -65 -20 -58 0 -65 -2
-65 -20 0 -13 -7 -20 -20 -20 -13 0 -20 -7 -20 -20 0 -17 -7 -20 -39 -20 -33
0 -40 -4 -43 -22 -2 -19 -10 -24 -45 -26 -35 -3 -43 -7 -43 -23 0 -17 -7 -19
-61 -19 -56 0 -61 -2 -56 -20 4 -15 0 -20 -17 -20 -11 0 -27 -9 -34 -20 -8
-14 -23 -20 -47 -20 -28 0 -35 -4 -35 -20 0 -18 -7 -20 -60 -20 -53 0 -60 -2
-60 -20 0 -17 -7 -20 -40 -20 -36 0 -40 -2 -40 -25 0 -24 -2 -25 -65 -25 -58
0 -65 -2 -65 -20 0 -17 -7 -20 -40 -20 -33 0 -40 -3 -40 -20 0 -18 -7 -20 -85
-20 -78 0 -85 -2 -85 -20 0 -20 -17 -25 -64 -20 -14 1 -18 -3 -13 -19 5 -20 1
-21 -69 -21 -66 0 -75 -2 -72 -17 3 -15 -6 -18 -54 -21 -50 -3 -58 -6 -58 -22
0 -11 -4 -21 -10 -21 -5 -1 -14 -3 -20 -4 -5 -1 -39 -3 -75 -4 -58 -1 -65 -3
-65 -21 0 -18 -7 -20 -85 -20 -81 0 -85 -1 -86 -22 0 -13 -3 -17 -6 -9 -3 8
-8 9 -12 3 -3 -6 -45 -12 -93 -13 -77 -3 -86 -5 -83 -21 4 -17 -8 -18 -151
-18 -146 0 -154 -1 -154 -20 0 -17 -8 -19 -82 -22 -66 -2 -83 -6 -83 -18 0
-13 -53 -15 -403 -18 -262 -1 -401 -6 -397 -12 4 -6 -8 -10 -27 -9 -27 0 -30
2 -13 9 14 6 -5 9 -57 9 -68 1 -78 -1 -78 -16 0 -15 2 -15 9 -4 8 12 12 12 25
-1 13 -13 13 -17 2 -21 -26 -10 -54 3 -49 24 5 18 -5 19 -362 19 -362 0 -367
0 -362 20 5 19 0 20 -99 20 -97 0 -104 1 -104 20 0 19 -7 20 -151 20 -146 0
-151 1 -146 20 5 19 0 20 -101 21 -59 0 -101 3 -94 6 6 2 12 9 12 14 0 6 -4 7
-10 4 -5 -3 -10 -1 -10 4 0 7 -32 11 -85 11 -78 0 -85 2 -85 20 0 18 -7 20
-74 20 -56 0 -75 4 -80 15 -3 8 0 15 7 15 8 0 6 4 -3 10 -8 5 -34 10 -57 10
-36 0 -43 3 -43 20 0 18 -7 20 -84 20 -79 0 -84 1 -79 20 5 18 0 20 -41 20
-39 0 -46 3 -46 20 0 23 -10 25 -29 8 -11 -10 -13 -10 -7 0 5 9 -9 12 -58 12
-59 0 -66 2 -66 20 0 17 -7 20 -45 20 -38 0 -45 3 -45 20 0 18 -7 20 -60 20
-57 0 -60 1 -60 25 0 23 -4 25 -40 25 -34 0 -40 3 -40 21 0 13 -6 20 -17 18
-10 -1 -39 -1 -65 0 -41 1 -48 4 -48 21 0 17 -7 20 -40 20 -33 0 -40 3 -40 20
0 17 -7 20 -40 20 -37 0 -45 7 -41 33 0 4 -19 7 -44 7 -38 0 -45 3 -45 20 0
17 -7 20 -40 20 -36 0 -40 3 -40 25 0 23 -4 25 -45 25 -38 0 -45 3 -45 20 0
13 -7 20 -20 20 -13 0 -20 7 -20 20 0 18 -7 20 -66 20 -36 0 -63 4 -60 8 2 4
1 14 -5 22 -6 10 -9 11 -9 3 0 -7 -5 -13 -11 -13 -5 0 -7 5 -4 10 4 6 -11 10
-38 10 -36 0 -46 4 -50 20 -4 16 -14 20 -46 20 -34 0 -41 3 -41 20 0 13 -7 20
-20 20 -15 0 -20 7 -20 25 0 23 -4 25 -45 25 -38 0 -45 3 -45 20 0 14 -7 20
-24 20 -20 0 -23 4 -19 21 5 16 1 20 -13 19 -47 -5 -64 0 -64 20 0 13 -7 20
-20 20 -13 0 -20 7 -20 20 0 13 -7 20 -20 20 -13 0 -20 7 -20 20 0 17 -7 20
-45 20 -41 0 -45 2 -45 25 0 18 -5 25 -20 25 -13 0 -20 7 -20 20 0 17 -7 20
-40 20 -33 0 -40 3 -40 20 0 13 -7 20 -20 20 -13 0 -20 7 -20 20 0 15 -7 20
-25 20 -18 0 -25 5 -25 20 0 13 -7 20 -20 21 -11 1 -24 3 -30 4 -5 1 -14 3
-20 4 -5 0 -10 8 -10 16 0 8 -9 15 -20 15 -15 0 -20 7 -20 25 0 18 -5 25 -20
25 -13 0 -20 7 -20 20 0 15 -7 20 -29 20 -39 0 -61 9 -61 26 0 8 -9 14 -20 14
-13 0 -20 7 -20 20 0 13 -7 20 -20 20 -13 0 -20 7 -20 20 0 13 -7 20 -20 20
-13 0 -20 7 -20 20 0 13 -7 20 -20 20 -15 0 -20 7 -20 25 0 23 -4 25 -45 25
-38 0 -45 3 -45 20 0 13 -7 20 -20 20 -13 0 -20 7 -20 20 0 13 -7 20 -20 20
-13 0 -20 7 -20 20 0 13 -7 20 -20 20 -13 0 -20 7 -20 20 0 13 -7 20 -20 20
-13 0 -20 7 -20 20 0 13 -7 20 -20 20 -15 0 -20 7 -20 25 0 20 -5 25 -25 25
-18 0 -25 5 -25 20 0 13 -7 20 -20 20 -13 0 -20 7 -20 20 0 13 -7 20 -20 20
-13 0 -20 7 -20 20 0 13 -7 20 -20 20 -13 0 -20 7 -20 20 0 13 -7 20 -20 20
-13 0 -20 7 -20 20 0 13 -7 20 -20 20 -15 0 -20 7 -20 25 0 20 -5 25 -25 25
-18 0 -25 5 -25 20 0 13 -7 20 -20 20 -13 0 -20 7 -20 20 0 13 -7 20 -20 20
-17 0 -20 7 -20 41 0 36 -2 41 -20 36 -16 -4 -20 0 -20 19 0 17 -6 24 -20 24
-15 0 -20 7 -20 25 0 18 -5 25 -20 25 -13 0 -20 7 -20 20 0 15 -7 20 -25 20
-18 0 -25 5 -25 20 0 13 -7 20 -20 20 -13 0 -20 7 -20 20 0 13 -7 20 -20 20
-13 0 -20 7 -20 20 0 13 -7 20 -20 20 -13 0 -20 7 -20 20 0 13 -7 20 -20 20
-15 0 -20 7 -20 25 0 18 -5 25 -20 25 -17 0 -20 7 -20 40 0 36 -2 40 -25 40
-18 0 -25 5 -25 20 0 13 -7 20 -20 20 -17 0 -20 7 -20 40 0 33 -3 40 -20 40
-17 0 -20 7 -20 45 0 38 -3 45 -20 45 -15 0 -20 7 -20 26 0 16 -4 23 -11 18
-15 -9 -29 14 -29 49 0 20 -5 27 -20 27 -13 0 -20 7 -20 20 0 15 -7 20 -25 20
-23 0 -25 4 -25 45 0 38 -3 45 -20 45 -13 0 -20 7 -20 19 0 10 -9 21 -20 24
-15 4 -20 14 -20 40 0 26 -5 36 -20 40 -16 4 -20 14 -20 46 0 34 -3 41 -20 41
-17 0 -20 7 -20 40 0 33 -3 40 -20 40 -13 0 -20 7 -20 20 0 15 -7 20 -25 20
-22 0 -25 4 -25 40 0 33 -3 40 -20 40 -15 0 -20 7 -20 25 0 18 -5 25 -20 25
-17 0 -20 7 -20 40 0 33 -3 40 -20 40 -17 0 -20 7 -20 40 0 33 -3 40 -20 40
-17 0 -20 7 -20 45 0 38 -3 45 -20 45 -18 0 -20 7 -20 60 0 54 -2 60 -21 60
-13 0 -18 -4 -13 -12 4 -7 3 -8 -4 -4 -7 4 -12 18 -12 32 0 17 -5 24 -20 24
-18 0 -20 7 -20 65 0 58 -2 65 -20 65 -17 0 -20 7 -20 40 0 33 -3 40 -20 40
-17 0 -20 7 -21 43 -1 23 0 52 1 65 1 16 -4 22 -19 22 -18 0 -21 6 -21 40 0
33 -3 40 -20 40 -18 0 -20 7 -20 60 0 57 -1 60 -25 60 l-25 0 0 105 c0 98 -1
105 -20 105 -17 0 -20 7 -20 45 0 38 -3 45 -20 45 -19 0 -20 7 -20 100 0 91
-2 101 -17 98 -15 -2 -19 6 -21 45 -3 39 -6 47 -23 47 -18 0 -19 8 -19 105 0
98 -1 105 -20 105 -18 0 -20 7 -20 60 0 60 -5 67 -42 61 -5 0 -8 55 -8 124 0
118 -1 125 -20 125 -19 0 -20 7 -20 126 0 121 -1 126 -20 121 -19 -5 -20 0
-20 168 0 168 -1 174 -20 170 -20 -4 -20 2 -20 581 0 570 0 584 19 584 19 0
20 10 21 201 0 111 3 206 6 210 2 4 11 6 19 2 13 -4 15 14 16 118 1 68 1 127
0 132 0 4 8 7 19 7 18 0 20 7 20 85 0 84 0 85 25 85 25 0 25 1 25 80 0 73 2
80 20 80 19 0 20 7 20 105 0 98 1 105 20 105 18 0 20 7 20 65 0 58 2 65 20 65
18 0 20 7 20 80 0 73 2 80 20 80 17 0 20 7 20 45 0 42 6 51 33 46 4 -1 7 4 6
11 -1 7 -1 49 0 93 1 56 4 75 11 65 8 -12 10 -10 11 10 l1 25 7 -25 c7 -24 7
-24 14 9 4 18 7 58 7 87 0 47 2 54 20 54 18 0 20 7 20 60 0 53 2 60 20 60 17
0 20 7 20 51 0 31 4 48 10 44 6 -3 10 0 10 7 0 9 3 9 10 -2 7 -11 10 3 10 48
0 55 2 62 20 62 17 0 20 7 20 45 0 38 3 45 20 45 17 0 20 7 20 40 0 36 3 40
25 40 23 0 25 4 25 40 0 33 3 40 20 40 17 0 20 7 20 45 0 38 3 45 20 45 17 0
20 7 20 40 0 33 3 40 20 40 13 0 20 7 20 20 0 13 7 20 20 20 17 0 20 7 20 40
0 33 3 40 20 40 17 0 20 7 20 45 0 41 2 45 25 45 23 0 25 4 25 40 0 33 3 40
20 40 15 0 20 7 20 25 0 14 6 25 13 25 9 0 9 2 -1 9 -10 6 -9 10 7 14 15 3 21
13 21 31 0 19 5 26 20 26 17 0 20 7 20 40 0 33 3 40 20 40 13 0 20 7 20 20 0
13 7 20 20 20 17 0 20 7 20 40 0 36 3 40 25 40 20 0 25 5 25 25 0 18 5 25 20
25 17 0 20 7 20 40 0 33 3 40 20 40 13 0 20 7 20 20 0 13 7 20 20 20 11 0 20
5 20 11 0 6 -10 8 -22 5 -13 -3 -17 -3 -10 0 6 3 10 10 6 15 -3 5 2 9 10 9 9
0 16 9 16 20 0 13 7 20 20 20 17 0 20 7 20 45 0 38 3 45 20 45 13 0 20 7 20
20 0 15 7 20 25 20 18 0 25 5 25 20 0 13 7 20 20 20 17 0 20 7 20 40 0 33 3
40 20 40 15 0 20 7 20 25 0 18 5 25 20 25 13 0 20 7 20 20 0 13 7 20 20 20 14
0 20 7 20 24 0 19 4 23 20 19 18 -5 20 0 20 36 0 37 2 41 25 41 18 0 25 5 25
20 0 13 7 20 20 20 15 0 20 7 20 25 0 18 5 25 20 25 13 0 20 7 20 20 0 13 7
20 20 20 13 0 20 7 20 20 0 13 7 20 20 20 13 0 20 7 20 20 0 13 7 20 20 20 17
0 20 7 20 40 0 36 3 40 25 40 20 0 25 5 25 25 0 18 5 25 20 25 13 0 20 7 20
19 0 13 11 21 43 28 26 7 33 11 19 12 -36 2 -15 21 24 21 27 0 34 4 34 20 0
13 7 20 20 20 13 0 20 7 20 20 0 15 7 20 25 20 18 0 25 5 25 20 0 13 7 20 20
20 14 0 20 7 20 21 0 12 8 23 20 26 11 3 20 14 20 24 0 12 7 19 20 19 13 0 20
7 20 20 0 13 7 20 20 20 13 0 20 7 20 20 0 13 7 20 20 20 13 0 20 7 20 20 0
15 7 20 25 20 18 0 25 5 25 20 0 13 7 20 20 20 15 0 20 7 20 25 0 18 5 25 20
25 13 0 20 7 20 20 0 13 7 20 20 20 13 0 20 7 20 20 0 17 7 20 40 20 33 0 40
3 40 20 0 15 7 20 25 20 18 0 25 5 25 20 0 13 7 20 20 20 13 0 20 7 20 20 0
13 7 20 20 20 15 0 20 7 20 25 0 23 4 25 40 25 33 0 40 3 40 20 0 13 7 20 20
20 13 0 20 7 20 20 0 15 7 20 25 20 18 0 25 5 25 20 0 11 4 20 9 20 5 0 7 -10
3 -22 -3 -14 -2 -19 6 -14 7 4 12 14 12 22 0 8 10 14 25 14 18 0 25 5 25 20 0
13 7 20 20 20 13 0 20 7 20 20 0 17 7 20 40 20 36 0 40 3 40 25 0 23 4 25 45
25 38 0 45 3 45 20 0 17 7 20 40 20 33 0 40 3 40 20 0 13 7 20 20 20 13 0 20
7 20 20 0 17 7 20 45 20 38 0 45 3 45 20 0 13 7 20 20 20 13 0 20 7 20 20 0
17 7 20 40 20 36 0 40 3 40 25 0 18 5 25 20 25 11 0 20 6 21 13 0 10 2 10 6 0
8 -21 33 -15 33 7 0 16 7 20 30 20 24 0 30 4 28 17 -2 10 4 18 12 19 8 0 25 2
36 2 12 1 24 11 27 22 4 15 14 20 41 20 29 0 36 4 36 20 0 17 7 20 45 20 38 0
45 3 45 20 0 13 5 18 15 14 8 -4 13 -10 10 -14 -3 -5 -1 -11 4 -15 6 -3 8 3 6
15 -3 16 1 20 21 20 19 0 24 5 24 25 0 23 3 25 50 25 28 0 50 5 50 10 0 6 -6
10 -12 11 -23 1 26 18 55 18 20 1 27 6 27 21 0 17 7 20 40 20 33 0 40 3 40 20
0 17 7 20 40 20 33 0 40 3 40 20 0 18 7 20 65 20 58 0 65 2 65 20 0 17 7 20
40 20 36 0 40 3 40 25 0 24 2 25 65 25 58 0 65 2 65 20 0 18 7 20 60 20 53 0
60 2 60 20 0 17 7 20 40 20 33 0 40 3 40 20 0 18 7 20 85 20 78 0 85 2 85 20
0 16 7 20 40 21 50 2 51 2 75 16 11 7 15 13 8 13 -6 0 -15 -5 -18 -10 -4 -6
-11 -7 -18 -3 -20 12 26 22 116 22 86 1 87 1 87 26 l0 25 104 0 c95 0 104 2
109 20 5 19 14 20 166 20 154 0 161 1 161 20 0 19 7 20 90 20 65 0 90 3 91 13
0 10 2 10 6 0 7 -19 24 -15 21 5 -3 16 12 17 170 20 164 2 172 3 172 22 0 20
9 20 605 20 l605 0 -18 -27z m1888 -363 c0 -18 7 -20 60 -20 57 0 60 -1 60
-25 0 -23 4 -25 45 -25 38 0 45 -3 45 -20 0 -18 7 -20 60 -20 53 0 60 -2 60
-20 0 -20 22 -26 74 -20 14 1 18 -3 13 -19 -5 -19 -1 -21 39 -21 37 0 44 -3
44 -20 0 -13 7 -20 19 -20 10 0 21 -9 24 -21 3 -11 11 -19 19 -18 7 1 34 1 61
0 43 -1 47 -3 47 -26 0 -22 4 -25 36 -25 27 0 37 -5 41 -20 4 -16 14 -20 44
-20 32 0 39 -3 39 -20 0 -17 7 -20 45 -20 38 0 45 -3 45 -20 0 -15 7 -20 26
-20 19 0 25 -4 21 -15 -4 -8 -2 -17 3 -20 6 -4 10 0 11 7 0 10 2 10 6 1 2 -7
16 -13 29 -13 17 0 24 -6 24 -20 0 -17 7 -20 40 -20 36 0 40 -2 40 -25 0 -23
4 -25 45 -25 38 0 45 -3 45 -20 0 -13 7 -20 20 -20 13 0 20 -7 20 -20 0 -17 7
-20 40 -20 33 0 40 -3 40 -20 0 -13 7 -20 19 -20 10 0 21 -9 24 -20 4 -16 14
-20 46 -20 34 0 41 -3 41 -20 0 -17 7 -20 40 -20 36 0 40 -2 40 -25 0 -20 5
-25 28 -26 15 -1 33 -1 40 0 6 1 12 -7 12 -19 0 -11 7 -20 15 -20 12 0 9 -12
-11 -57 -134 -294 -209 -555 -250 -864 -30 -227 -30 -723 -1 -1054 2 -16 -16
-29 -83 -62 -104 -51 -309 -137 -314 -132 -2 2 -25 46 -50 97 -55 110 -156
283 -239 407 -230 347 -537 673 -1154 1228 l-222 199 26 52 c71 139 348 632
535 949 63 107 71 117 98 117 23 0 30 -5 30 -20z m574 -238 c3 -5 -1 -9 -9 -9
-8 0 -15 4 -15 9 0 4 4 8 9 8 6 0 12 -4 15 -8z m-8074 -762 c0 -5 -5 -10 -11
-10 -5 0 -7 5 -4 10 3 6 8 10 11 10 2 0 4 -4 4 -10z m5883 -3074 c182 -85 467
-179 692 -227 119 -26 445 -37 615 -21 69 6 107 6 111 0 4 -6 12 -81 19 -167
19 -240 -3 -801 -51 -1261 -79 -777 -241 -1418 -527 -2090 -203 -478 -418
-817 -718 -1129 -356 -372 -621 -474 -841 -325 -104 71 -169 150 -252 306
-138 259 -234 609 -272 998 -16 157 -16 602 0 780 62 719 229 1445 538 2345
98 285 258 711 337 897 l16 37 117 -49 c65 -26 162 -69 216 -94z m-7723 -1171
c0 -8 -8 -15 -17 -14 -11 0 -13 3 -5 6 6 2 10 9 6 14 -3 5 0 9 5 9 6 0 11 -7
11 -15z m-497 -3382 c-7 -2 -19 -2 -25 0 -7 3 -2 5 12 5 14 0 19 -2 13 -5z
m847 -1503 c107 -95 206 -183 219 -196 l24 -22 -49 -64 c-27 -34 -101 -124
-164 -198 -141 -166 -146 -172 -134 -169 32 6 54 -3 54 -21 0 -17 7 -20 40
-20 33 0 40 -3 40 -20 0 -17 7 -20 40 -20 33 0 40 -3 40 -20 0 -17 7 -20 45
-20 38 0 45 -3 45 -20 0 -13 7 -20 20 -20 13 0 20 -7 20 -20 0 -13 7 -20 20
-20 15 0 20 -7 20 -25 0 -18 5 -25 20 -25 13 0 20 -7 20 -20 0 -13 7 -20 20
-20 13 0 20 -7 20 -20 0 -15 7 -20 25 -20 23 0 25 -4 25 -40 0 -33 3 -40 20
-40 13 0 20 -7 20 -20 0 -13 7 -20 20 -20 15 0 20 -7 20 -25 0 -18 5 -25 20
-25 17 0 20 -7 20 -40 0 -33 3 -40 19 -40 16 0 20 -8 23 -42 2 -34 7 -43 21
-42 14 2 17 -6 17 -42 0 -40 2 -44 25 -44 18 0 25 -5 25 -20 0 -13 7 -20 20
-20 13 0 20 -7 20 -20 0 -13 7 -20 20 -20 13 0 20 -7 20 -20 0 -13 7 -20 20
-20 17 0 20 -7 20 -40 0 -33 3 -40 20 -40 15 0 20 -7 20 -29 0 -16 6 -32 13
-34 9 -4 8 -8 -3 -16 -12 -9 -11 -11 8 -11 15 0 22 -6 22 -20 0 -15 7 -20 25
-20 18 0 25 -5 25 -20 0 -13 7 -20 20 -20 13 0 20 -7 20 -20 0 -15 7 -20 26
-20 17 0 23 -4 18 -12 -5 -7 -2 -9 9 -5 11 4 14 2 10 -9 -4 -10 3 -14 26 -14
26 0 31 -4 31 -25 0 -18 5 -25 20 -25 13 0 20 -7 20 -20 0 -15 7 -20 25 -20
18 0 25 -5 25 -20 0 -13 7 -20 20 -20 13 0 20 -7 20 -20 0 -13 7 -20 20 -20
13 0 20 -7 20 -20 0 -13 7 -20 20 -20 13 0 20 -7 20 -20 0 -13 7 -20 20 -20
15 0 20 -7 20 -25 l0 -25 -166 0 c-130 0 -169 3 -180 14 -10 11 -11 15 -1 19
28 10 -5 16 -113 19 -102 3 -115 5 -114 21 2 15 -10 17 -127 17 -122 0 -129 1
-129 20 0 19 -7 20 -142 21 -89 0 -135 4 -123 9 l20 9 -20 1 -20 1 20 9 c13 5
-27 9 -107 9 -121 1 -128 2 -128 21 0 19 -7 20 -125 20 -118 0 -125 1 -125 20
0 18 -7 20 -85 20 -84 0 -85 0 -85 25 l0 25 -185 0 c-178 0 -185 1 -185 20 0
19 -7 20 -129 20 -124 0 -130 1 -126 20 4 19 -2 20 -121 20 -116 0 -124 1
-124 20 0 16 -8 19 -60 22 l-60 3 92 60 c309 201 587 419 886 693 l92 85 0
600 0 599 78 -69 c42 -38 165 -147 272 -243z m1280 -2175 c0 -8 -7 -15 -15
-15 -16 0 -20 12 -8 23 11 12 23 8 23 -8z m-2006 -240 c3 -8 1 -15 -4 -15 -6
0 -10 7 -10 15 0 8 2 15 4 15 2 0 6 -7 10 -15z m14176 -45 c0 -5 -4 -10 -10
-10 -5 0 -10 5 -10 10 0 6 5 10 10 10 6 0 10 -4 10 -10z m-383 -45 c0 -8 -6
-15 -12 -15 -6 0 -12 7 -12 15 0 8 6 15 12 15 6 0 12 -7 12 -15z m-3080 -250
c0 -8 -6 -15 -12 -15 -6 0 -12 7 -12 15 0 8 6 15 12 15 6 0 12 -7 12 -15z
m1863 -666 c0 -5 -4 -9 -10 -9 -5 0 -10 7 -10 16 0 8 5 12 10 9 6 -3 10 -10
10 -16z m-5190 -219 c0 -12 -27 -12 -55 0 -16 7 -13 9 18 9 20 1 37 -3 37 -9z"/>
<path d="M52860 46970 c0 -5 5 -10 10 -10 6 0 10 5 10 10 0 6 -4 10 -10 10 -5
0 -10 -4 -10 -10z"/>
<path d="M63048 42683 c6 -2 18 -2 25 0 6 3 1 5 -13 5 -14 0 -19 -2 -12 -5z"/>
<path d="M49220 41725 c0 -9 6 -12 15 -9 8 4 15 7 15 9 0 2 -7 5 -15 9 -9 3
-15 0 -15 -9z"/>
<path d="M49186 40195 c-3 -9 0 -15 8 -15 7 0 13 7 13 15 0 8 -4 15 -8 15 -4
0 -9 -7 -13 -15z"/>
<path d="M62880 38280 c0 -5 7 -10 15 -10 8 0 15 5 15 10 0 6 -7 10 -15 10 -8
0 -15 -4 -15 -10z"/>
<path d="M51808 35273 c6 -2 18 -2 25 0 6 3 1 5 -13 5 -14 0 -19 -2 -12 -5z"/>
<path d="M60000 34780 c0 -5 5 -10 11 -10 5 0 7 5 4 10 -3 6 -8 10 -11 10 -2
0 -4 -4 -4 -10z"/>
<path d="M59100 34309 c0 -5 5 -7 10 -4 6 3 10 8 10 11 0 2 -4 4 -10 4 -5 0
-10 -5 -10 -11z"/>
<path d="M58210 33979 c0 -5 5 -7 10 -4 6 3 10 8 10 11 0 2 -4 4 -10 4 -5 0
-10 -5 -10 -11z"/>
<path d="M29170 49690 c0 -20 -7 -20 -295 -20 l-295 0 0 -25 c0 -25 -1 -25
-80 -25 l-80 0 0 -40 c0 -33 3 -40 20 -40 18 0 20 -7 20 -79 0 -71 2 -80 20
-86 17 -5 20 -15 20 -66 l0 -59 85 0 c78 0 85 2 85 20 0 18 21 27 53 21 5 -1
11 8 14 19 7 27 49 27 56 0 5 -18 14 -20 106 -20 94 0 101 -1 101 -20 0 -13 7
-20 20 -20 13 0 20 -7 20 -20 0 -18 7 -20 85 -20 78 0 85 -2 85 -20 0 -16 8
-19 58 -22 50 -3 57 -6 60 -25 3 -17 10 -23 28 -23 17 0 24 -5 24 -20 0 -13 7
-20 20 -20 13 0 20 -7 20 -20 0 -14 7 -20 23 -20 21 0 22 3 19 65 -3 60 -2 65
17 65 19 0 21 6 21 60 l0 60 40 0 c33 0 40 -3 40 -20 0 -17 7 -20 49 -20 42 0
49 3 46 18 -2 9 -4 27 -4 40 -1 15 -7 22 -21 22 -13 0 -20 7 -20 20 0 15 -7
20 -25 20 -20 0 -25 5 -25 25 0 18 -5 25 -20 25 -18 0 -20 8 -22 98 l-3 97
-102 3 c-96 3 -102 4 -105 25 -3 19 -10 22 -60 25 -50 3 -58 6 -58 22 0 13 -7
20 -20 20 -13 0 -20 -7 -20 -20z m148 -55 c-3 -3 -9 2 -12 12 -6 14 -5 15 5 6
7 -7 10 -15 7 -18z m-688 -155 c0 -15 -7 -20 -25 -20 -18 0 -25 5 -25 20 0 15
7 20 25 20 18 0 25 -5 25 -20z m100 -166 c0 -8 -5 -12 -10 -9 -6 4 -8 11 -5
16 9 14 15 11 15 -7z"/>
<path d="M27630 49600 c0 -17 -7 -20 -45 -20 -38 0 -45 -3 -45 -20 0 -13 -7
-20 -20 -20 -13 0 -20 -7 -20 -20 0 -17 -7 -20 -40 -20 -33 0 -40 -3 -40 -20
0 -18 -7 -20 -69 -20 -64 0 -69 1 -64 20 4 15 0 20 -16 20 -14 0 -21 -6 -21
-20 0 -13 -7 -20 -20 -20 -13 0 -20 -7 -20 -20 0 -13 7 -20 20 -20 15 0 20 -7
20 -25 0 -18 5 -25 20 -25 11 0 20 -6 20 -12 0 -9 4 -8 10 2 9 13 10 13 10 0
0 -13 1 -13 10 0 8 12 10 10 10 -9 0 -18 -4 -22 -20 -18 -16 4 -20 0 -20 -19
0 -21 -4 -24 -40 -24 -30 0 -40 4 -40 16 0 9 -9 18 -20 21 -16 4 -20 14 -20
49 l0 44 -85 0 c-84 0 -85 0 -85 -25 0 -18 -5 -25 -20 -25 -13 0 -20 -7 -20
-20 0 -13 -7 -20 -20 -20 -13 0 -20 -7 -20 -20 0 -19 -7 -20 -125 -20 -118 0
-125 -1 -125 -20 0 -13 -7 -20 -20 -20 -13 0 -20 -7 -20 -20 0 -15 -7 -20 -25
-20 -18 0 -25 5 -25 19 0 15 -9 20 -40 23 l-40 4 0 -43 c0 -41 -1 -42 -37 -45
-32 -3 -38 -7 -37 -25 1 -21 -4 -23 -55 -24 -31 -1 -59 -1 -63 0 -5 0 -7 -2
-7 -7 4 -23 -4 -32 -26 -32 -18 0 -25 -5 -25 -20 0 -18 -7 -20 -85 -20 -78 0
-85 -2 -85 -20 0 -13 -7 -20 -20 -20 -13 0 -20 -7 -20 -20 0 -18 7 -20 85 -20
78 0 85 -2 85 -20 0 -17 7 -20 40 -20 36 0 40 -2 40 -25 0 -23 4 -25 45 -25
38 0 45 -3 45 -20 0 -13 7 -20 20 -20 13 0 20 -7 20 -20 0 -13 7 -20 20 -20
13 0 20 -7 20 -20 0 -14 7 -20 23 -20 19 0 22 5 22 37 0 37 1 38 38 41 32 3
37 0 37 -17 0 -18 6 -21 45 -21 38 0 45 3 45 20 0 11 7 20 16 20 8 0 12 -4 9
-10 -3 -5 -1 -10 4 -10 6 0 11 5 11 10 0 6 35 10 85 10 78 0 85 2 85 20 0 14
7 20 21 20 15 0 20 5 17 23 -3 19 2 22 40 25 34 3 42 7 42 23 0 17 7 19 65 19
58 0 65 2 65 20 0 19 7 20 125 20 118 0 125 1 125 20 0 19 7 20 100 20 93 0
100 1 100 20 0 18 7 20 65 20 58 0 65 2 65 20 0 18 7 20 69 20 58 0 70 3 74
18 4 16 5 16 6 0 2 -28 19 -21 23 10 2 19 8 26 21 24 9 -2 17 2 17 8 0 5 -8
10 -17 11 -15 0 -15 2 2 9 11 5 66 9 123 9 95 1 102 2 102 21 0 15 -7 20 -25
20 -18 0 -25 5 -25 20 0 13 -7 20 -20 20 -17 0 -20 7 -20 40 0 33 -3 40 -20
40 -18 0 -20 7 -20 85 0 78 2 85 20 85 13 0 20 7 20 20 0 13 7 20 20 20 13 0
20 7 20 20 0 19 -7 20 -100 20 -93 0 -100 -1 -100 -20 0 -19 -7 -20 -105 -20
-98 0 -105 1 -105 20 0 13 -7 20 -20 20 -13 0 -20 -7 -20 -20z m227 -436 c-3
-3 -12 -4 -19 -1 -8 3 -5 6 6 6 11 1 17 -2 13 -5z m-1536 -77 c-10 -9 -11 -8
-5 6 3 10 9 15 12 12 3 -3 0 -11 -7 -18z"/>
<path d="M30040 49560 c0 -13 -7 -20 -20 -20 -17 0 -20 -7 -20 -40 0 -33 -3
-40 -20 -40 -17 0 -20 -7 -20 -45 0 -38 -3 -45 -20 -45 -17 0 -20 -7 -20 -40
0 -33 3 -40 20 -40 17 0 20 -7 20 -40 0 -33 3 -40 20 -40 13 0 20 -7 20 -20 0
-13 7 -20 20 -20 13 0 20 7 20 20 0 18 7 20 65 20 59 0 65 -2 65 -21 0 -18 6
-20 53 -19 28 1 76 1 105 1 49 -1 52 -3 52 -26 0 -22 4 -25 40 -25 36 0 40 3
40 25 0 18 5 25 20 25 13 0 20 7 20 20 0 11 7 20 15 20 15 0 23 -33 27 -115
l3 -50 43 -3 c33 -3 42 -7 40 -20 -2 -14 7 -17 50 -19 40 -1 52 2 52 13 0 8 5
15 10 15 6 1 16 2 23 3 6 1 18 -6 25 -16 10 -14 27 -18 73 -18 52 0 59 -2 59
-20 0 -17 7 -20 40 -20 33 0 40 -3 40 -19 0 -15 10 -21 40 -26 30 -5 40 -11
40 -26 0 -13 7 -19 21 -19 12 0 23 -8 26 -19 3 -11 15 -21 27 -23 13 -2 20 -9
18 -19 -1 -11 7 -16 30 -18 32 -2 78 -7 88 -10 3 -1 -2 -6 -10 -11 -12 -7 -8
-11 18 -16 22 -5 32 -12 32 -25 0 -16 8 -19 45 -19 38 0 45 -3 45 -19 0 -16 8
-20 38 -23 30 -2 38 -7 40 -25 2 -15 10 -23 23 -23 12 0 19 -7 19 -20 0 -17 7
-20 45 -20 38 0 45 -3 45 -20 0 -13 7 -20 20 -20 13 0 20 -7 20 -20 0 -13 7
-20 20 -20 13 0 20 -7 20 -20 0 -13 7 -20 20 -20 13 0 20 -7 20 -20 0 -13 7
-20 20 -20 15 0 20 -7 20 -25 0 -18 5 -25 20 -25 13 0 20 -7 20 -20 0 -15 7
-20 25 -20 23 0 25 -4 25 -40 0 -33 3 -40 20 -40 13 0 20 -7 20 -20 0 -13 7
-20 20 -20 13 0 20 -7 20 -20 0 -17 7 -20 46 -20 35 0 45 -3 41 -14 -9 -23 15
-36 70 -36 l53 0 0 -60 c0 -53 2 -60 20 -60 13 0 20 -7 20 -20 0 -13 7 -20 20
-20 13 0 20 -7 20 -20 0 -17 7 -20 40 -20 36 0 40 -2 40 -25 0 -23 4 -25 45
-25 38 0 45 -3 45 -20 0 -18 7 -20 60 -20 53 0 60 -2 60 -20 0 -17 7 -20 45
-20 38 0 45 -3 45 -20 0 -13 7 -20 20 -20 17 0 20 -7 20 -40 0 -33 3 -40 20
-40 17 0 20 -7 20 -45 0 -38 3 -45 20 -45 13 0 20 -7 20 -20 0 -13 7 -20 20
-20 13 0 20 -7 20 -20 0 -13 7 -20 20 -20 18 0 20 -7 21 -57 0 -42 3 -52 9
-38 8 18 9 18 10 -5 l2 -25 7 25 c7 22 9 19 15 -21 5 -26 13 -46 19 -46 63 2
67 -1 67 -47 0 -34 4 -46 18 -49 16 -4 16 -5 0 -6 -10 0 -18 -5 -18 -10 0 -5
8 -8 17 -7 12 0 19 -7 21 -21 2 -15 10 -23 23 -23 16 0 19 -7 19 -45 0 -38 3
-45 20 -45 18 0 20 -7 20 -60 0 -57 1 -60 25 -60 23 0 25 -3 25 -49 0 -70 6
-81 46 -81 27 0 34 -4 34 -20 0 -13 7 -20 20 -20 17 0 20 -7 20 -40 0 -33 3
-40 20 -40 18 0 20 -7 20 -85 0 -78 2 -85 20 -85 13 0 20 -7 20 -20 0 -15 7
-20 25 -20 22 0 25 -4 25 -36 0 -28 5 -37 21 -41 18 -5 20 -12 17 -49 l-3 -43
42 1 c35 0 43 4 43 19 0 12 7 19 20 19 15 0 20 7 20 25 0 23 4 25 45 25 38 0
45 3 45 20 0 18 7 20 60 20 53 0 60 2 60 20 0 17 7 20 40 20 33 0 40 3 40 20
0 17 7 20 45 20 38 0 45 -3 45 -20 0 -17 7 -20 40 -20 41 0 45 5 34 48 -7 26
-21 29 -27 5 -3 -10 -5 1 -6 25 -1 35 -4 42 -21 42 -17 0 -20 7 -20 45 0 38
-3 45 -20 45 -17 0 -20 7 -20 40 0 36 -2 40 -25 40 -18 0 -25 -5 -25 -20 0
-13 -7 -20 -20 -20 -15 0 -20 -7 -20 -26 0 -26 -23 -58 -34 -47 -11 11 -6 21
12 26 16 4 16 5 0 6 -16 1 -18 12 -18 81 0 73 -2 80 -20 80 -15 0 -20 7 -20
25 0 18 -5 25 -20 25 -13 0 -20 7 -20 20 0 13 -7 20 -20 20 -18 0 -20 7 -20
60 l0 60 -65 0 c-61 0 -65 1 -65 23 0 21 4 22 68 22 62 0 68 -2 68 -20 -1 -15
7 -21 28 -23 19 -2 25 -6 17 -11 -9 -6 -8 -10 6 -13 14 -4 18 1 19 24 1 25 -6
33 -28 29 -5 0 -8 13 -8 29 0 23 -4 30 -20 30 -13 0 -20 7 -20 20 0 15 -7 20
-25 20 -18 0 -25 5 -25 20 0 17 -7 20 -40 20 -33 0 -40 3 -40 20 0 13 -7 20
-20 20 -17 0 -20 7 -20 40 0 33 -3 40 -20 40 -17 0 -20 7 -20 45 0 38 -3 45
-20 45 -17 0 -20 7 -20 40 0 36 -2 40 -25 40 -18 0 -25 5 -25 20 0 13 -7 20
-20 20 -13 0 -20 7 -20 20 0 13 -7 20 -20 20 -15 0 -20 7 -20 25 0 18 -5 25
-20 25 -13 0 -20 7 -20 20 0 13 -7 20 -20 20 -13 0 -20 7 -20 19 0 11 -6 22
-12 24 -10 4 -10 6 0 6 19 1 14 19 -8 26 -11 3 -20 15 -20 26 0 14 -7 19 -25
19 -18 0 -25 5 -25 20 0 13 -7 20 -20 20 -15 0 -20 7 -20 25 0 18 -5 25 -20
25 -17 0 -20 7 -20 40 0 33 -3 40 -20 40 -13 0 -20 7 -20 20 0 13 -7 20 -20
20 -13 0 -20 7 -20 20 0 17 -7 20 -45 20 -37 0 -45 3 -45 19 0 10 -9 21 -20
24 -12 3 -20 14 -20 26 0 14 -6 21 -20 21 -13 0 -20 7 -20 20 0 13 -7 20 -20
20 -13 0 -20 7 -20 20 0 17 -7 20 -40 20 l-40 0 0 40 c0 36 -2 40 -25 40 -18
0 -25 5 -25 20 0 13 -7 20 -20 20 -15 0 -20 7 -20 25 0 18 -5 25 -20 25 -13 0
-20 7 -20 20 0 13 -7 20 -20 20 -13 0 -20 7 -20 20 0 13 -7 20 -20 20 -13 0
-20 7 -20 20 0 18 -7 20 -85 20 -78 0 -85 2 -85 20 0 17 -7 20 -40 20 -33 0
-40 3 -40 20 0 13 -7 20 -20 20 -17 0 -20 7 -20 45 0 41 -2 45 -25 45 -18 0
-25 5 -25 20 0 13 -7 20 -20 20 -13 0 -20 7 -20 20 0 18 -7 20 -60 20 -54 0
-60 2 -60 21 0 16 -5 20 -20 16 -16 -4 -20 0 -20 19 0 22 -4 24 -45 24 -41 0
-45 2 -45 25 l0 25 -105 0 c-98 0 -105 1 -105 20 0 19 -24 26 -67 21 -7 -1
-13 3 -13 9 0 6 4 9 9 6 5 -3 11 1 15 9 3 8 2 14 -2 14 -37 -6 -62 3 -62 21 0
14 -7 20 -24 20 -19 0 -23 4 -19 19 4 16 -1 19 -30 19 -49 0 -57 7 -57 53 l0
39 -100 0 c-93 0 -100 1 -100 20 0 17 -7 20 -45 20 -38 0 -45 3 -45 20 0 17
-7 20 -40 20 -33 0 -40 3 -40 20 0 17 -7 20 -40 20 -33 0 -40 3 -40 20 0 17
-7 20 -45 20 -38 0 -45 3 -45 20 0 17 -7 20 -40 20 -36 0 -40 3 -40 25 0 24
-2 25 -65 25 -48 0 -65 3 -65 14 0 16 -43 26 -111 26 -42 0 -49 3 -49 20 0 17
-7 20 -45 20 -38 0 -45 3 -45 20 0 19 -7 20 -125 20 -118 0 -125 1 -125 20 0
13 -7 20 -20 20 -13 0 -20 -7 -20 -20z m778 -525 c-14 -31 -25 -25 -26 15 -1
26 2 29 18 20 16 -9 18 -14 8 -35z m2725 -1832 c-7 -2 -19 -2 -25 0 -7 3 -2 5
12 5 14 0 19 -2 13 -5z m-3 -20 c0 -5 -5 -15 -10 -23 -8 -12 -10 -12 -11 5 -1
17 -2 16 -9 -5 l-8 -25 -1 28 c-1 21 4 27 19 27 11 0 20 -3 20 -7z m290 -538
c0 -18 -5 -25 -20 -25 -20 0 -28 28 -13 43 15 16 33 6 33 -18z"/>
<path d="M29830 49270 c0 -13 -7 -20 -20 -20 -13 0 -20 -7 -20 -20 0 -17 7
-20 45 -20 l45 0 0 40 c0 36 -2 40 -25 40 -18 0 -25 -5 -25 -20z"/>
<path d="M27250 48980 c0 -5 9 -10 20 -10 11 0 20 5 20 10 0 6 -9 10 -20 10
-11 0 -20 -4 -20 -10z"/>
<path d="M25750 48895 c0 -22 -4 -25 -36 -25 -27 0 -37 -5 -41 -20 -3 -11 -14
-20 -24 -20 -12 0 -19 -7 -19 -20 0 -17 -7 -20 -46 -20 -41 0 -46 -2 -41 -20
5 -18 0 -20 -39 -20 -37 0 -44 -3 -44 -20 0 -18 -7 -20 -65 -20 -58 0 -65 -2
-65 -20 0 -17 -7 -20 -40 -20 -36 0 -40 -2 -40 -25 0 -18 -5 -25 -20 -25 -17
0 -20 -7 -20 -40 0 -33 -3 -40 -20 -40 -13 0 -20 -7 -20 -20 0 -13 -7 -20 -20
-20 -13 0 -20 -7 -20 -20 0 -17 -7 -20 -45 -20 -38 0 -45 -3 -45 -20 0 -13 -7
-20 -20 -20 -15 0 -20 -7 -20 -25 0 -22 -4 -25 -36 -25 -27 0 -37 -5 -41 -20
-4 -16 -14 -20 -49 -20 -37 0 -44 -3 -44 -20 0 -13 -7 -20 -20 -20 -13 0 -20
-7 -20 -20 0 -13 -7 -20 -20 -20 -13 0 -20 -7 -20 -20 0 -17 -7 -20 -40 -20
-33 0 -40 -3 -40 -20 0 -13 -7 -20 -20 -20 -15 0 -20 -7 -20 -25 0 -20 -5 -25
-25 -25 -18 0 -25 -5 -25 -20 0 -13 -7 -20 -20 -20 -13 0 -20 -7 -20 -20 0
-13 -7 -20 -20 -20 -13 0 -20 -7 -20 -20 0 -13 -7 -20 -20 -20 -13 0 -20 -7
-20 -20 0 -13 -7 -20 -20 -20 -13 0 -20 -7 -20 -20 0 -17 -7 -20 -45 -20 -41
0 -45 -2 -45 -25 0 -25 -13 -31 -62 -26 -12 2 -18 -5 -18 -18 0 -14 -6 -21
-20 -21 -13 0 -20 -7 -20 -20 0 -13 -7 -20 -20 -20 -13 0 -20 -7 -20 -20 0
-13 -7 -20 -20 -20 -13 0 -20 -7 -20 -20 0 -17 -7 -20 -45 -20 -38 0 -45 -3
-45 -20 0 -13 -7 -20 -20 -20 -15 0 -20 -7 -20 -25 0 -18 -5 -25 -20 -25 -13
0 -20 -7 -20 -20 0 -13 -7 -20 -20 -20 -13 0 -20 -7 -20 -20 0 -13 -7 -20 -20
-20 -13 0 -20 -7 -20 -20 0 -17 -7 -20 -45 -20 -38 0 -45 -3 -45 -20 0 -13 -7
-20 -20 -20 -13 0 -20 -7 -20 -20 0 -13 -7 -20 -20 -20 -15 0 -20 -7 -20 -25
0 -18 -5 -25 -20 -25 -13 0 -20 -7 -20 -20 0 -17 -7 -20 -45 -20 -38 0 -45 -3
-45 -20 0 -13 -7 -20 -20 -20 -13 0 -20 -7 -20 -20 0 -13 -7 -20 -20 -20 -13
0 -20 -7 -20 -20 0 -13 -7 -20 -20 -20 -13 0 -20 -7 -20 -20 0 -13 -7 -20 -20
-20 -15 0 -20 -7 -20 -25 0 -18 -5 -25 -20 -25 -13 0 -20 -7 -20 -20 0 -15 -7
-20 -25 -20 -18 0 -25 -5 -25 -20 0 -13 -7 -20 -20 -20 -13 0 -20 -7 -20 -20
0 -13 -7 -20 -20 -20 -13 0 -20 -7 -20 -20 0 -13 -7 -20 -20 -20 -13 0 -20 -7
-20 -20 0 -13 -7 -20 -20 -20 -15 0 -20 -7 -20 -25 0 -18 -5 -25 -20 -25 -13
0 -20 -7 -20 -20 0 -17 -7 -20 -45 -20 -38 0 -45 -3 -45 -20 0 -13 -7 -20 -20
-20 -13 0 -20 -7 -20 -20 0 -13 -7 -20 -20 -20 -13 0 -20 -7 -20 -20 0 -13 -7
-20 -20 -20 -17 0 -20 -7 -20 -45 0 -38 -3 -45 -20 -45 -13 0 -20 -7 -20 -20
0 -13 7 -20 20 -20 13 0 20 7 20 20 0 18 7 20 80 20 79 0 80 0 80 25 0 20 5
25 25 25 18 0 25 5 25 20 0 13 7 20 20 20 13 0 20 7 20 20 0 13 7 20 20 20 13
0 20 7 20 20 0 13 7 20 20 20 13 0 20 7 20 20 0 13 7 20 20 20 13 0 20 7 20
20 0 13 7 20 20 20 15 0 20 7 20 25 0 20 5 25 25 25 18 0 25 5 25 20 0 13 7
20 20 20 13 0 20 7 20 20 0 13 7 20 20 20 13 0 20 -7 20 -20 0 -17 7 -20 40
-20 33 0 40 3 40 20 0 13 7 20 20 20 13 0 20 7 20 20 0 15 7 20 25 20 18 0 25
5 25 20 0 13 7 20 20 20 13 0 20 7 20 20 0 13 7 20 20 20 15 0 20 7 20 25 0
18 5 25 20 25 13 0 20 7 20 20 0 13 7 20 20 20 21 0 25 14 21 83 -2 31 0 37
17 37 14 0 22 8 24 22 2 14 12 25 28 29 l25 6 -25 5 c-23 5 -23 5 -2 7 12 0
22 6 22 11 0 6 9 10 20 10 13 0 20 7 20 20 0 13 7 20 20 20 13 0 20 7 20 19 0
13 8 21 23 23 12 2 22 10 22 18 0 15 5 16 53 19 15 1 22 7 22 21 0 15 7 20 25
20 18 0 25 5 25 20 0 13 7 20 20 20 15 0 20 7 20 25 0 18 5 25 20 25 13 0 20
7 20 20 0 17 7 20 40 20 33 0 40 3 40 20 0 17 7 20 45 20 38 0 45 3 45 20 0
13 7 20 20 20 13 0 20 7 20 20 0 17 7 20 40 20 33 0 40 3 40 20 0 17 7 20 40
20 36 0 40 3 40 25 0 20 5 25 24 25 18 0 25 6 28 23 2 12 10 22 18 22 11 0 16
14 18 58 3 49 6 57 22 57 13 0 20 7 20 20 0 17 7 20 40 20 36 0 40 3 40 25 0
23 4 25 45 25 38 0 45 3 45 20 0 13 7 20 20 20 13 0 20 7 20 19 0 14 10 21 38
26 31 6 34 9 17 15 -11 5 -17 9 -12 11 4 1 12 3 17 4 6 1 30 3 55 4 37 1 45 4
45 20 0 16 8 20 43 23 29 2 42 8 42 18 0 10 13 16 43 18 37 3 42 6 42 28 0 18
5 25 18 23 59 -6 94 2 99 21 5 19 28 25 76 21 9 -1 17 3 17 8 0 6 -10 12 -22
12 -14 1 -5 6 20 12 31 7 42 15 42 28 0 18 10 19 125 19 l125 0 0 105 c0 98 1
105 20 105 17 0 20 7 20 40 0 33 3 40 20 40 17 0 20 7 20 39 0 22 5 42 13 44
6 3 -12 6 -40 6 -50 1 -53 0 -53 -24z m-1883 -1481 c-3 -3 -12 -4 -19 -1 -8 3
-5 6 6 6 11 1 17 -2 13 -5z"/>
<path d="M25848 48873 c7 -3 16 -2 19 1 4 3 -2 6 -13 5 -11 0 -14 -3 -6 -6z"/>
<path d="M57020 48360 c0 -5 5 -10 10 -10 6 0 10 5 10 10 0 6 -4 10 -10 10 -5
0 -10 -4 -10 -10z"/>
<path d="M54098 48093 c7 -3 16 -2 19 1 4 3 -2 6 -13 5 -11 0 -14 -3 -6 -6z"/>
<path d="M15790 47533 c-1144 -52 -2227 -327 -3170 -803 -1267 -641 -2249
-1616 -2859 -2840 -384 -773 -583 -1503 -673 -2475 -17 -186 -17 -931 0 -1120
41 -456 93 -779 187 -1155 301 -1211 933 -2287 1830 -3114 1069 -985 2469
-1607 4045 -1795 584 -70 1294 -80 1900 -26 1260 112 2360 469 3314 1073 303
192 667 476 899 701 l67 65 -1 616 0 615 -58 50 c-32 28 -219 194 -416 370
-1365 1218 -1625 1450 -1634 1453 -4 1 -37 -32 -72 -75 -288 -350 -616 -657
-924 -863 -574 -386 -1198 -566 -1895 -547 -375 10 -651 56 -974 162 -730 239
-1326 788 -1642 1512 -136 312 -220 637 -271 1043 -25 205 -25 743 1 950 47
391 126 703 255 1008 250 594 689 1079 1244 1371 682 361 1616 442 2401 210
167 -49 312 -106 491 -194 257 -126 495 -285 735 -489 141 -121 373 -355 495
-500 55 -66 112 -133 126 -150 l27 -30 73 65 c246 219 1254 1118 1522 1357
l317 283 0 -46 c0 -41 -2 -45 -25 -45 -20 0 -25 -5 -25 -25 0 -18 -5 -25 -20
-25 -18 0 -20 -7 -20 -60 0 -53 2 -60 20 -60 19 0 20 -7 20 -125 0 -118 -1
-125 -20 -125 -14 0 -20 -7 -20 -21 0 -16 5 -20 20 -16 19 5 20 0 20 -64 l0
-69 -40 0 c-33 0 -40 -3 -40 -20 0 -13 -7 -20 -20 -20 -19 0 -20 -7 -20 -90 0
-50 3 -89 8 -89 27 5 32 -4 32 -56 0 -48 -2 -55 -20 -55 -13 0 -20 -7 -20 -20
0 -13 -7 -20 -20 -20 -18 0 -20 -7 -20 -85 0 -78 -2 -85 -20 -85 -18 0 -20 -7
-20 -85 0 -61 -3 -85 -12 -85 -9 0 -8 -4 2 -10 12 -8 9 -10 -12 -10 -27 0 -28
-2 -28 -50 0 -43 -3 -50 -20 -50 -19 0 -20 -7 -20 -105 0 -98 -1 -105 -20
-105 -19 0 -20 -7 -20 -165 0 -158 1 -165 20 -165 17 0 20 -7 20 -45 0 -38 3
-45 20 -45 19 0 24 -14 23 -58 -1 -7 10 -15 23 -18 23 -6 24 -10 24 -94 l0
-87 -25 5 c-19 3 -25 0 -25 -13 0 -10 8 -24 18 -31 16 -13 16 -14 0 -8 -12 4
-18 1 -18 -10 0 -9 3 -15 8 -15 34 6 42 -2 42 -41 0 -33 3 -40 20 -40 19 0 20
-7 20 -210 0 -203 1 -210 20 -210 18 0 20 -7 20 -60 0 -53 -2 -60 -20 -60 -19
0 -20 -7 -20 -170 0 -163 1 -170 20 -170 17 0 20 -7 20 -40 0 -33 3 -40 20
-40 17 0 20 -7 20 -40 0 -33 3 -40 20 -40 15 0 20 -7 20 -25 0 -18 5 -25 20
-25 17 0 20 -7 20 -40 0 -36 3 -40 25 -40 18 0 25 -5 25 -20 0 -13 7 -20 20
-20 13 0 20 -7 20 -20 0 -13 7 -20 20 -20 17 0 20 -7 20 -45 0 -38 3 -45 20
-45 13 0 20 -7 20 -20 0 -13 7 -20 20 -20 13 0 20 -7 20 -20 0 -13 7 -20 20
-20 13 0 20 -7 20 -20 0 -15 7 -20 25 -20 18 0 25 -5 25 -20 0 -13 7 -20 20
-20 15 0 20 -7 20 -25 0 -18 5 -25 20 -25 13 0 20 -7 20 -20 0 -17 7 -20 40
-20 33 0 40 -3 40 -20 0 -18 7 -20 58 -21 31 0 51 -3 44 -6 -22 -9 7 -33 39
-33 22 0 29 5 29 20 0 13 7 20 20 20 17 0 20 7 20 40 0 33 -3 40 -20 40 -15 0
-20 7 -20 25 0 18 -5 25 -20 25 -16 0 -20 7 -20 36 0 27 -5 37 -20 41 -11 3
-20 14 -20 24 0 14 -7 19 -25 19 -18 0 -25 5 -25 20 0 13 -7 20 -20 20 -13 0
-20 -7 -20 -20 0 -13 -7 -20 -20 -20 -17 0 -20 -7 -20 -40 0 -33 -3 -40 -20
-40 -18 0 -20 7 -20 80 0 73 2 80 20 80 17 0 20 7 20 41 0 32 4 42 20 46 18 5
20 14 20 88 0 74 -2 83 -20 88 -15 4 -20 14 -20 41 0 29 -4 36 -20 36 -19 0
-20 7 -21 143 0 78 0 172 1 210 1 62 0 67 -19 67 -18 0 -21 6 -21 40 0 33 3
40 20 40 18 0 20 7 20 79 0 83 -13 137 -30 126 -6 -4 -10 5 -10 19 0 24 -3 26
-45 26 l-46 0 3 83 c3 77 4 82 26 83 17 1 22 -4 22 -21 0 -40 27 -38 34 3 10
60 7 182 -4 182 -5 0 -10 9 -10 20 0 11 -4 20 -10 20 -6 0 -10 83 -10 230 l0
230 23 1 c12 0 16 3 10 6 -15 6 -17 33 -3 33 6 0 10 20 10 45 0 38 3 45 20 45
19 0 20 7 20 185 0 178 1 185 20 185 11 0 20 7 20 16 0 8 -4 12 -10 9 -5 -3
-10 2 -11 12 0 16 -1 16 -9 -2 -7 -16 -9 -11 -9 22 -1 50 7 73 25 73 11 0 14
34 14 186 0 181 -1 186 -20 181 -18 -5 -20 0 -20 44 0 42 -3 49 -20 49 -17 0
-20 6 -19 38 0 35 17 92 18 65 1 -7 6 -13 11 -13 6 0 9 3 9 8 -1 4 -1 67 0
140 1 125 2 132 21 132 17 0 20 7 20 40 0 33 3 40 20 40 19 0 20 7 20 90 0 53
4 90 10 90 6 0 10 5 10 11 0 5 -4 7 -10 4 -6 -3 -10 4 -10 16 l0 22 20 -23 20
-23 0 31 c0 25 -4 32 -20 32 -18 0 -20 7 -20 65 0 58 2 65 20 65 13 0 20 7 20
20 0 15 7 20 25 20 23 0 25 4 25 40 0 33 3 40 20 40 20 0 26 21 21 73 -3 20
15 23 22 5 3 -7 8 2 12 20 5 22 13 32 26 32 12 0 19 7 19 20 0 13 7 20 20 20
17 0 20 7 20 40 0 33 3 40 19 40 16 0 20 8 23 43 2 35 7 43 26 45 14 2 22 10
22 23 0 12 7 19 20 19 20 0 25 17 21 63 -3 19 25 24 32 5 3 -8 6 -6 6 5 1 9 6
17 12 17 6 0 9 7 5 15 -3 8 -1 15 3 15 5 0 12 -6 14 -12 4 -10 6 -10 6 0 1 6
10 12 21 12 17 0 20 7 20 40 0 37 7 45 33 41 4 0 7 10 7 24 0 20 5 25 25 25
24 0 25 3 25 60 0 57 -1 60 -25 60 -23 0 -31 13 -26 43 2 12 -27 8 -32 -5 -3
-7 -6 29 -6 80 -1 86 0 92 19 92 13 0 20 7 20 20 0 15 7 20 25 20 23 0 25 4
25 46 0 41 2 46 20 41 16 -4 20 0 20 18 0 14 7 25 20 28 17 4 20 14 20 61 0
49 2 56 20 56 20 0 25 25 20 103 -1 21 3 27 19 27 14 0 21 6 21 20 0 13 7 20
20 20 19 0 26 24 21 68 -1 7 9 12 24 12 20 0 25 5 25 25 0 18 5 25 20 25 13 0
20 7 20 20 0 16 7 20 31 20 17 0 28 4 24 10 -3 6 1 7 10 3 13 -5 14 -7 3 -14
-11 -8 -11 -10 0 -18 11 -7 10 -9 -3 -14 -9 -4 -13 -3 -10 3 3 6 1 10 -4 10
-6 0 -11 -16 -11 -35 0 -28 -4 -35 -20 -35 -13 0 -20 -7 -20 -20 0 -13 -7 -20
-20 -20 -17 0 -20 -7 -20 -44 0 -41 -1 -43 -25 -38 -21 4 -25 0 -26 -22 -1
-14 -3 -30 -4 -36 -1 -5 -3 -15 -4 -21 -1 -8 -6 -8 -16 1 -13 11 -15 8 -15
-19 0 -24 4 -31 20 -31 18 0 20 -7 20 -60 l0 -60 45 0 c38 0 45 3 45 20 0 13
7 20 20 20 13 0 20 7 20 20 0 13 7 20 20 20 18 0 20 7 20 65 0 58 -2 65 -20
65 -16 0 -20 7 -20 35 0 35 22 50 33 23 3 -7 6 4 6 25 1 28 5 37 18 37 9 0 25
8 36 18 19 16 20 16 14 0 -5 -15 -1 -18 28 -18 28 0 33 4 32 20 -1 11 -8 20
-15 20 -9 0 -12 7 -9 20 3 11 1 20 -4 20 -5 0 -9 -8 -9 -19 0 -11 -9 -21 -22
-24 -28 -8 -32 -4 -24 28 6 22 9 25 21 15 13 -11 15 -7 15 19 0 26 4 31 23 31
22 0 24 4 26 60 2 58 1 60 -23 60 -19 0 -26 5 -26 20 0 15 7 20 25 20 24 0 25
2 25 65 0 63 -1 65 -25 65 -14 0 -25 -6 -25 -12 0 -10 -3 -9 -9 1 -10 16 -31
6 -31 -15 0 -8 -9 -14 -21 -14 -13 0 -20 -6 -18 -17 1 -10 1 -25 0 -33 -1 -12
-3 -13 -10 -1 -15 23 -31 2 -31 -40 0 -32 -3 -39 -20 -39 -13 0 -20 -7 -20
-20 0 -13 -7 -20 -20 -20 -18 0 -25 -10 -21 -32 0 -5 -10 -8 -23 -8 -15 0 -26
-7 -29 -20 -4 -15 -14 -20 -41 -20 -29 0 -36 -4 -36 -20 0 -13 -7 -20 -20 -20
-18 0 -20 -7 -20 -61 0 -38 -4 -58 -10 -54 -6 4 -8 10 -6 14 3 4 -1 8 -9 8 -8
0 -14 -3 -13 -6 0 -3 0 -21 -1 -38 -1 -26 -5 -33 -21 -33 -17 0 -20 -7 -20
-40 0 -36 -2 -40 -25 -40 -20 0 -25 -5 -25 -24 0 -15 -7 -26 -20 -29 -11 -3
-20 -10 -20 -17 0 -6 6 -8 13 -4 10 6 10 4 0 -7 -7 -7 -13 -21 -13 -31 0 -11
-7 -18 -20 -18 -13 0 -20 -7 -20 -20 0 -13 -7 -20 -20 -20 -17 0 -20 -7 -20
-40 0 -33 -3 -40 -20 -40 -15 0 -20 -7 -20 -25 0 -18 -5 -25 -20 -25 -17 0
-20 -7 -20 -40 0 -36 -2 -40 -25 -40 -18 0 -25 -5 -25 -20 0 -13 -7 -20 -20
-20 -17 0 -20 -7 -20 -38 0 -34 11 -52 75 -131 41 -51 75 -96 74 -99 0 -4
-136 -127 -302 -274 l-302 -267 -3 614 -2 614 -118 108 c-1258 1163 -3004
1773 -5042 1761 -173 -1 -344 -3 -380 -5z m6788 -1476 c2 -12 -3 -17 -17 -17
-15 0 -21 6 -21 21 0 25 33 22 38 -4z m-40 -39 c2 -12 -2 -15 -17 -11 -12 3
-21 12 -21 20 0 20 34 12 38 -9z m-578 -768 c0 -33 -3 -40 -20 -40 -17 0 -20
7 -20 40 0 33 3 40 20 40 17 0 20 -7 20 -40z m-1083 -2416 c-3 -3 -12 -4 -19
-1 -8 3 -5 6 6 6 11 1 17 -2 13 -5z m451 -374 c-2 -21 -7 -30 -20 -30 -20 0
-25 20 -5 21 10 0 10 2 0 6 -21 8 -15 33 7 33 16 0 20 -6 18 -30z m-11 -677
c-3 -10 -5 -4 -5 12 0 17 2 24 5 18 2 -7 2 -21 0 -30z"/>
<path d="M24002 47395 c0 -16 2 -22 5 -12 2 9 2 23 0 30 -3 6 -5 -1 -5 -18z"/>
<path d="M24020 47395 c0 -14 5 -25 10 -25 6 0 10 11 10 25 0 14 -4 25 -10 25
-5 0 -10 -11 -10 -25z"/>
<path d="M23960 47353 c0 -10 4 -14 8 -8 4 6 11 13 16 18 5 4 2 7 -7 7 -10 0
-17 -8 -17 -17z"/>
<path d="M23811 47273 c-1 -24 13 -31 25 -11 4 6 3 8 -4 4 -6 -3 -13 2 -15 11
-4 14 -5 13 -6 -4z"/>
<path d="M33960 46714 c0 -37 3 -44 20 -44 17 0 20 -7 20 -45 0 -39 3 -45 21
-45 19 0 21 -5 17 -40 -3 -36 -1 -40 19 -40 22 0 23 -4 23 -65 0 -63 1 -65 25
-65 18 0 25 -5 25 -20 0 -15 7 -20 28 -20 32 0 46 -9 50 -32 2 -12 -3 -15 -16
-11 -14 3 -21 -2 -25 -17 -4 -15 -11 -21 -21 -17 -14 5 -16 -5 -16 -68 0 -75
0 -75 -27 -76 l-28 -1 30 -8 c22 -6 25 -8 10 -10 -11 -1 -23 -2 -27 -1 -5 0
-8 -10 -8 -24 0 -18 -5 -25 -20 -25 -13 0 -20 -7 -20 -20 0 -13 -7 -20 -20
-20 -13 0 -20 -7 -20 -20 0 -11 -3 -19 -7 -19 -5 1 -32 1 -60 0 -46 -1 -53 -4
-53 -21 0 -19 -7 -20 -121 -20 -112 0 -121 1 -126 20 -5 17 -14 20 -70 20 -61
0 -64 -1 -61 -22 2 -13 10 -23 18 -23 13 0 15 -24 18 -147 2 -140 4 -148 22
-148 19 0 20 -8 20 -270 0 -263 0 -270 -20 -270 -13 0 -20 -7 -20 -20 0 -13 7
-20 20 -20 18 0 20 -7 20 -85 0 -84 0 -85 25 -85 23 0 25 -4 25 -40 0 -22 -3
-39 -7 -39 -44 7 -44 4 -41 -123 3 -119 4 -123 26 -126 18 -3 22 -10 22 -43 0
-37 -2 -39 -30 -39 -16 0 -33 0 -37 -1 -18 -1 -24 -36 -24 -139 -1 -102 -2
-110 -20 -110 -16 0 -19 -7 -19 -45 0 -38 -3 -45 -20 -45 -18 0 -20 -7 -20
-60 0 -53 -2 -60 -20 -60 -17 0 -20 -7 -20 -41 0 -36 -3 -41 -19 -36 -18 4
-20 -2 -23 -87 -5 -141 -1 -175 21 -169 14 4 19 -1 19 -21 0 -19 -6 -26 -19
-26 -12 0 -19 -7 -19 -20 0 -15 -7 -20 -25 -20 -18 0 -25 -5 -25 -20 0 -13 -7
-20 -20 -20 -17 0 -20 -7 -20 -40 0 -33 -3 -40 -20 -40 -18 0 -20 -7 -20 -65
0 -50 -3 -65 -14 -65 -20 0 -29 -17 -28 -51 0 -22 -4 -29 -19 -29 -16 0 -19
-7 -19 -40 0 -33 -3 -40 -20 -40 -17 0 -20 -7 -20 -45 0 -41 -2 -45 -25 -45
-24 0 -25 -3 -25 -60 0 -53 -2 -60 -20 -60 -17 0 -20 -7 -20 -45 0 -38 -3 -45
-20 -45 -19 0 -20 -7 -20 -145 0 -138 -1 -145 -20 -145 -19 0 -20 -7 -20 -125
0 -118 1 -125 20 -125 18 0 20 -7 20 -80 0 -73 -2 -80 -20 -80 -18 0 -20 -7
-20 -85 0 -78 2 -85 20 -85 18 0 20 -7 20 -79 0 -71 2 -80 20 -86 11 -3 20
-15 20 -26 0 -12 7 -19 20 -19 13 0 20 -7 20 -20 0 -17 7 -20 45 -20 38 0 45
-3 45 -20 0 -13 7 -20 20 -20 13 0 20 -7 20 -20 0 -17 7 -20 40 -20 l40 0 0
-45 c0 -44 -1 -45 -32 -45 -23 0 -29 3 -19 9 22 14 3 31 -35 31 -30 0 -34 3
-34 25 0 18 -5 25 -20 25 -13 0 -20 7 -20 20 0 15 -7 20 -25 20 -24 0 -25 -2
-24 -67 1 -38 4 -59 7 -48 4 11 14 20 22 20 11 0 16 -15 18 -65 2 -36 5 -71 7
-77 3 -9 33 -13 100 -13 94 0 96 0 93 23 -2 13 -10 21 -18 19 -10 -1 -8 3 5
13 19 15 19 16 -3 21 -28 8 -30 44 -2 44 13 0 20 -7 20 -20 0 -17 7 -20 45
-20 38 0 45 -3 45 -20 0 -13 -7 -20 -20 -20 -13 0 -20 -7 -20 -20 0 -19 7 -20
100 -20 93 0 100 1 100 20 0 17 7 20 38 20 45 0 56 8 40 27 -9 12 -9 14 3 13
7 -1 60 -2 117 -1 95 1 102 2 102 21 0 17 7 20 40 20 36 0 40 3 40 24 0 17 5
23 17 22 12 0 19 7 21 22 3 17 -2 22 -17 22 -14 0 -21 6 -21 19 0 15 -10 21
-42 27 -24 4 -37 9 -30 11 6 3 10 9 6 14 -3 5 1 9 9 9 8 0 17 9 20 20 5 20 37
29 37 10 0 -5 -4 -10 -10 -10 -5 0 -10 -4 -10 -10 0 -5 3 -9 8 -9 32 5 52 -3
52 -21 0 -17 7 -20 40 -20 33 0 40 3 40 20 0 17 7 20 45 20 38 0 45 3 45 20 0
13 7 20 20 20 17 0 20 7 20 40 0 33 3 40 20 40 17 0 20 -7 20 -40 0 -33 3 -40
20 -40 13 0 20 7 20 20 0 13 7 20 20 20 13 0 20 7 20 20 0 17 7 20 41 20 22 0
47 6 55 14 16 17 19 30 4 21 -5 -3 -10 -1 -10 4 0 6 18 11 40 11 33 0 40 3 40
20 0 13 7 20 20 20 13 0 20 7 20 20 0 13 7 20 20 20 13 0 20 7 20 20 0 14 7
20 24 20 15 0 26 7 29 20 4 15 14 20 41 20 29 0 36 4 36 20 0 13 7 20 20 20
16 0 20 7 20 31 0 26 3 30 23 25 12 -3 16 -3 10 0 -25 11 -14 34 17 34 23 0
30 4 30 20 0 15 7 20 25 20 18 0 25 5 25 20 0 13 7 20 20 20 17 0 20 7 20 40
0 33 3 40 20 40 15 0 20 7 20 25 0 18 5 25 20 25 13 0 20 7 20 20 0 13 7 20
20 20 13 0 20 7 20 20 0 17 7 20 45 20 38 0 45 3 45 20 0 13 7 20 20 20 13 0
20 7 20 20 0 13 7 20 20 20 13 0 20 7 20 20 0 13 7 20 20 20 19 0 20 7 20 210
0 203 -1 210 -20 210 -17 0 -20 7 -20 40 0 33 3 40 20 40 17 0 20 7 20 45 0
38 -3 45 -20 45 -13 0 -20 7 -20 20 0 13 -7 20 -20 20 -13 0 -20 7 -20 20 0
13 -7 20 -20 20 -13 0 -20 7 -20 20 0 15 -7 20 -25 20 -18 0 -25 5 -25 19 0
17 9 20 65 23 36 1 66 0 66 -4 1 -5 2 -14 3 -20 0 -7 18 -14 39 -16 l37 -3 0
46 c0 38 -3 45 -17 43 -15 -2 -19 5 -21 40 -3 34 -7 42 -23 42 -12 0 -19 7
-19 20 0 13 -7 20 -20 20 -19 0 -20 7 -20 125 0 118 1 125 20 125 11 0 20 7
20 15 0 14 -12 19 -32 16 -5 0 -8 10 -8 24 0 18 -5 25 -20 25 -18 0 -20 7 -20
85 0 77 -2 85 -19 85 -22 0 -33 26 -31 68 1 15 2 62 1 105 -1 70 -3 77 -21 77
-17 0 -20 7 -20 40 0 33 -3 40 -20 40 -16 0 -20 7 -20 30 0 24 4 30 23 31 15
0 17 2 7 6 -23 9 -30 24 -30 66 0 30 -4 37 -20 37 -17 0 -20 7 -20 40 0 33 -3
40 -20 40 -13 0 -20 7 -20 20 0 13 7 20 20 20 17 0 20 7 20 45 0 38 -3 45 -19
45 -16 0 -20 8 -23 38 -3 36 -4 37 -45 40 -35 3 -43 7 -43 23 0 12 -7 19 -20
19 -17 0 -20 7 -20 40 0 22 -5 40 -11 40 -5 0 -8 -4 -5 -8 3 -5 -1 -9 -9 -9
-11 0 -12 4 -4 14 6 7 24 13 40 13 22 0 29 -5 29 -20 0 -15 7 -20 25 -20 22 0
25 4 25 39 0 22 -5 42 -12 44 -10 4 -10 6 0 6 8 1 12 19 12 56 0 52 -1 55 -25
55 -22 0 -25 4 -25 39 0 31 -4 41 -20 46 -18 6 -20 15 -20 90 0 78 -1 83 -20
78 -18 -5 -20 0 -20 41 0 39 -3 46 -20 46 -13 0 -20 7 -20 20 0 17 -7 20 -40
20 -27 0 -40 4 -39 13 1 6 1 24 0 40 -1 22 -6 27 -26 27 -24 0 -25 2 -25 65 0
58 -2 65 -20 65 -13 0 -20 7 -20 20 0 13 -7 20 -20 20 -18 0 -20 7 -20 60 0
53 -2 60 -20 60 -15 0 -20 7 -20 25 0 23 -4 25 -40 25 l-40 0 0 40 c0 25 -5
40 -12 40 -10 0 -9 3 1 9 19 12 3 34 -20 28 -15 -4 -19 0 -19 18 0 13 -5 27
-10 30 -8 5 -7 11 1 21 9 11 8 14 -4 14 -8 0 -18 -6 -20 -12 -3 -7 -6 13 -6
45 -1 45 -4 57 -17 57 -9 0 -18 -9 -21 -20 -3 -11 -14 -20 -24 -20 -15 0 -19
7 -19 40 0 32 4 40 19 40 15 0 19 8 19 40 1 38 -1 40 -31 40 -18 0 -27 4 -22
8 6 4 12 24 14 45 2 32 0 37 -18 37 -18 0 -21 6 -21 40 0 33 -3 40 -20 40 -17
0 -20 7 -20 40 0 36 -2 40 -25 40 -23 0 -25 4 -25 45 0 38 -3 45 -20 45 -13 0
-20 7 -20 20 0 13 -7 20 -20 20 -13 0 -20 7 -20 19 0 10 -9 21 -20 24 -18 5
-20 0 -20 -39z m210 -367 c10 -4 8 -6 -7 -6 -16 -1 -23 5 -23 17 0 10 3 13 8
6 4 -6 14 -14 22 -17z m21 -130 c-8 -8 -11 -7 -11 4 0 20 13 34 18 19 3 -7 -1
-17 -7 -23z m229 -367 c0 -13 -7 -20 -20 -20 -19 0 -27 20 -13 33 13 14 33 6
33 -13z m-457 -370 c4 -16 0 -20 -19 -20 -17 0 -24 6 -24 20 0 13 7 20 19 20
10 0 21 -9 24 -20z m-173 -539 c0 -10 -3 -32 -6 -48 -5 -26 -9 -28 -40 -25
-33 4 -34 6 -34 48 l0 44 40 0 c32 0 40 -4 40 -19z m248 -103 c-2 -30 -13 -47
-29 -48 -3 0 -6 18 -7 40 -3 35 0 40 18 40 18 0 21 -5 18 -32z m-260 -25 c-4
-21 -23 -16 -24 6 -1 13 4 17 13 14 8 -3 13 -12 11 -20z m392 -43 c0 -23 -25
-27 -33 -6 -7 16 1 26 20 26 7 0 13 -9 13 -20z m71 -35 c5 4 6 -1 3 -9 -9 -24
-24 -19 -23 7 0 12 3 16 6 9 2 -6 9 -10 14 -7z m889 -1087 c0 -13 -8 -18 -25
-18 -18 0 -25 5 -25 20 0 15 6 19 25 18 17 -2 25 -8 25 -20z m-51 -130 c0 -22
-1 -22 -9 -3 -7 17 -9 17 -9 3 -1 -10 -5 -18 -10 -18 -6 0 -9 9 -8 20 2 29 37
27 36 -2z m-1119 -123 c0 -18 -5 -25 -20 -25 -15 0 -20 7 -20 25 0 18 5 25 20
25 15 0 20 -7 20 -25z m-390 -1090 c0 -8 -8 -15 -17 -14 -13 0 -14 2 -4 6 11
5 11 7 0 14 -11 7 -10 9 4 9 9 0 17 -7 17 -15z m175 6 c3 -5 0 -13 -6 -17 -7
-4 -9 -3 -5 4 3 6 -2 13 -11 15 -16 4 -16 5 -1 6 9 0 19 -3 23 -8z m412 -67
c-3 -3 -12 -4 -19 -1 -8 3 -5 6 6 6 11 1 17 -2 13 -5z m-487 -52 c0 -10 -3
-21 -6 -24 -10 -11 -44 5 -44 21 0 13 -2 13 -9 2 -5 -7 -14 -10 -20 -7 -22 14
-10 22 34 25 38 2 45 -1 45 -17z m-302 -136 c3 -13 -2 -17 -14 -14 -25 4 -31
37 -7 34 10 -2 20 -11 21 -20z m296 0 c-3 -9 -10 -13 -15 -10 -5 3 -3 11 4 19
15 16 19 13 11 -9z m626 -121 c0 -58 -2 -65 -20 -65 -18 0 -20 7 -20 65 0 58
2 65 20 65 18 0 20 -7 20 -65z m-790 -208 c0 -14 5 -18 20 -14 19 5 20 0 20
-63 0 -63 -2 -69 -20 -67 -12 1 -20 8 -20 19 0 11 -7 18 -20 18 -15 0 -20 7
-20 29 0 24 -3 28 -20 24 -15 -4 -20 0 -20 16 0 18 -6 21 -45 21 -39 0 -45 3
-45 21 0 19 5 20 85 18 77 -2 85 -3 85 -22z m315 -135 c-6 -15 -8 -15 -15 3
-4 12 -3 23 4 27 14 9 20 -7 11 -30z m-145 11 c0 -10 -5 -25 -10 -33 -9 -13
-10 -13 -11 0 0 8 -5 4 -9 -10 -7 -21 -8 -19 -9 18 -1 36 2 42 19 42 12 0 20
-7 20 -17z"/>
<path d="M35095 43650 c3 -5 8 -10 11 -10 2 0 4 5 4 10 0 6 -5 10 -11 10 -5 0
-7 -4 -4 -10z"/>
<path d="M33330 46310 c0 -11 4 -20 9 -20 5 0 7 9 4 20 -3 11 -7 20 -9 20 -2
0 -4 -9 -4 -20z"/>
<path d="M33350 46316 c0 -8 5 -18 10 -21 6 -3 10 3 10 14 0 12 -4 21 -10 21
-5 0 -10 -6 -10 -14z"/>
<path d="M22540 45820 c-10 -6 -8 -11 8 -19 27 -14 32 -14 32 3 0 17 -23 27
-40 16z"/>
<path d="M50290 45567 c0 -10 8 -17 18 -17 9 0 13 4 7 8 -5 4 -13 11 -17 16
-5 5 -8 2 -8 -7z"/>
<path d="M22211 45314 c0 -11 3 -14 6 -6 3 7 2 16 -1 19 -3 4 -6 -2 -5 -13z"/>
<path d="M22233 45315 c0 -8 4 -12 9 -9 5 3 6 10 3 15 -9 13 -12 11 -12 -6z"/>
<path d="M22170 45260 c0 -17 5 -30 13 -30 8 0 7 -4 -3 -10 -12 -8 -11 -10 8
-10 19 0 22 5 22 40 0 33 -3 40 -20 40 -16 0 -20 -7 -20 -30z"/>
<path d="M33388 43943 c7 -3 16 -2 19 1 4 3 -2 6 -13 5 -11 0 -14 -3 -6 -6z"/>
<path d="M33299 43776 c9 -11 9 -15 -1 -19 -8 -4 -7 -6 5 -6 19 -1 20 0 11 23
-3 9 -11 16 -16 16 -6 0 -6 -6 1 -14z"/>
<path d="M20970 43339 c0 -5 5 -7 10 -4 6 3 10 8 10 11 0 2 -4 4 -10 4 -5 0
-10 -5 -10 -11z"/>
<path d="M32830 42480 c0 -15 7 -20 25 -20 18 0 25 5 25 20 0 15 -7 20 -25 20
-18 0 -25 -5 -25 -20z"/>
<path d="M32790 42355 c0 -58 2 -65 20 -65 13 0 20 -7 20 -20 0 -15 7 -20 25
-20 24 0 25 3 25 60 0 57 -1 60 -25 60 -20 0 -25 5 -25 25 0 18 -5 25 -20 25
-18 0 -20 -7 -20 -65z"/>
<path d="M63768 42193 c7 -3 16 -2 19 1 4 3 -2 6 -13 5 -11 0 -14 -3 -6 -6z"/>
<path d="M32420 41811 c0 -14 -6 -21 -20 -21 -13 0 -20 -7 -20 -20 0 -13 7
-20 20 -20 13 0 20 -7 20 -20 0 -13 7 -20 20 -20 13 0 20 7 20 20 0 14 7 20
21 20 17 0 20 5 17 37 -3 35 -5 37 -40 41 -33 3 -38 1 -38 -17z m65 -13 c6 -4
2 -8 -7 -8 -10 0 -18 7 -18 17 0 9 3 12 8 7 4 -5 12 -12 17 -16z"/>
<path d="M21040 40040 l0 -80 45 0 c41 0 45 -2 45 -25 0 -18 5 -25 20 -25 18
0 20 -7 20 -72 0 -46 4 -68 9 -59 21 33 31 -4 31 -120 0 -112 1 -119 20 -119
13 0 20 -7 20 -20 0 -13 7 -20 20 -20 13 0 20 -7 20 -19 0 -10 9 -21 20 -24
18 -5 20 -14 20 -86 0 -80 0 -81 25 -81 23 0 25 -4 25 -40 0 -33 3 -40 20 -40
15 0 20 -7 20 -25 0 -19 5 -25 21 -25 17 0 20 -5 17 -37 -2 -27 -8 -39 -20
-41 -13 -2 -18 3 -18 17 0 14 -6 21 -20 21 -17 0 -20 -7 -20 -40 l0 -40 40 0
c33 0 40 -3 40 -20 0 -16 7 -20 34 -20 37 0 46 -12 46 -61 0 -22 5 -29 20 -29
13 0 20 -7 20 -20 0 -15 7 -20 25 -20 20 0 25 -5 25 -24 0 -19 4 -24 20 -21
22 4 28 -10 8 -18 -10 -4 -10 -6 0 -6 6 -1 12 -12 12 -26 0 -18 5 -25 20 -25
13 0 20 -7 20 -20 0 -13 7 -20 20 -20 15 0 20 -7 20 -25 0 -18 5 -25 20 -25
17 0 20 -7 20 -40 0 -33 3 -40 20 -40 13 0 20 -7 20 -20 0 -15 7 -20 25 -20
23 0 25 -4 25 -40 0 -33 3 -40 20 -40 15 0 20 -7 20 -25 0 -18 5 -25 20 -25
13 0 20 -7 20 -20 0 -13 7 -20 20 -20 17 0 20 -7 20 -40 0 -33 3 -40 20 -40
13 0 20 -7 20 -20 0 -17 7 -20 45 -20 l45 0 0 40 c0 34 3 40 20 40 20 0 21 5
20 219 -1 211 -2 219 -21 214 -17 -5 -19 0 -19 51 0 53 -1 56 -25 56 -23 0
-25 4 -25 45 0 38 -3 45 -20 45 -17 0 -20 7 -20 40 0 33 -3 40 -20 40 -17 0
-20 7 -20 40 0 33 -3 40 -20 40 -13 0 -20 7 -20 20 0 13 -7 20 -20 20 -17 0
-20 7 -20 45 0 38 -3 45 -20 45 -13 0 -20 7 -20 20 0 15 -7 20 -25 20 -18 0
-25 5 -25 20 0 13 -7 20 -20 20 -13 0 -20 7 -20 20 0 13 -7 20 -20 20 -17 0
-20 7 -20 41 0 32 -4 42 -20 46 -11 3 -20 14 -20 24 0 12 -7 19 -20 19 -13 0
-20 7 -20 20 0 13 -7 20 -20 20 -13 0 -20 7 -20 20 0 15 -7 20 -25 20 -18 0
-25 5 -25 20 0 13 -7 20 -20 20 -13 0 -20 7 -20 20 0 13 -7 20 -20 20 -15 0
-20 7 -20 25 0 18 -5 25 -20 25 -13 0 -20 7 -20 20 0 13 -7 20 -20 20 -13 0
-20 7 -20 20 0 13 -7 20 -20 20 -13 0 -20 7 -20 20 0 15 -7 20 -25 20 -18 0
-25 5 -25 20 0 13 -7 20 -20 20 -13 0 -20 7 -20 20 0 13 -7 20 -20 20 -15 0
-20 7 -20 25 0 18 -5 25 -20 25 -13 0 -20 7 -20 20 0 13 -7 20 -20 20 -13 0
-20 7 -20 20 0 13 -7 20 -20 20 -13 0 -20 7 -20 20 0 15 -7 20 -25 20 -18 0
-25 5 -25 20 0 13 -7 20 -20 20 -18 0 -20 -7 -20 -80z m695 -628 c-3 -3 -11 0
-18 7 -9 10 -8 11 6 5 10 -3 15 -9 12 -12z"/>
<path d="M45291 39804 c0 -11 3 -14 6 -6 3 7 2 16 -1 19 -3 4 -6 -2 -5 -13z"/>
<path d="M29630 39270 c0 -15 -7 -20 -25 -20 -18 0 -25 -5 -25 -20 0 -13 -7
-20 -20 -20 -15 0 -20 -7 -20 -25 0 -20 -5 -25 -24 -25 -35 0 -56 -10 -56 -26
0 -8 -9 -14 -20 -14 -13 0 -20 -7 -20 -20 0 -13 -7 -20 -20 -20 -17 0 -20 -7
-20 -40 0 -36 -2 -40 -25 -40 -18 0 -25 -5 -25 -20 0 -13 -7 -20 -20 -20 -15
0 -20 -7 -20 -25 0 -18 -5 -25 -20 -25 -13 0 -20 -7 -20 -20 0 -13 -7 -20 -20
-20 -13 0 -20 -7 -20 -20 0 -13 -7 -20 -20 -20 -13 0 -20 -7 -20 -20 0 -17 -7
-20 -45 -20 -38 0 -45 -3 -45 -20 0 -13 -7 -20 -20 -20 -13 0 -20 -7 -20 -20
0 -13 -7 -20 -20 -20 -15 0 -20 -7 -20 -25 0 -22 -4 -25 -40 -25 -33 0 -40 -3
-40 -20 0 -13 -7 -20 -20 -20 -13 0 -20 -7 -20 -20 0 -15 -7 -20 -29 -20 -21
0 -28 -5 -27 -17 1 -14 -8 -19 -36 -21 -30 -3 -38 -7 -38 -23 0 -12 -7 -19
-20 -19 -13 0 -20 -7 -20 -20 0 -17 -7 -20 -40 -20 -36 0 -40 -2 -40 -25 0
-23 -4 -25 -45 -25 -38 0 -45 -3 -45 -20 0 -13 -7 -20 -20 -20 -13 0 -20 -7
-20 -20 0 -18 -7 -20 -60 -20 -56 0 -60 -1 -60 -24 0 -19 -4 -22 -25 -18 -20
3 -25 0 -25 -17 0 -14 -6 -21 -20 -21 -13 0 -20 -7 -20 -20 0 -17 -7 -20 -40
-20 -36 0 -40 -2 -40 -25 0 -18 -5 -25 -20 -25 -17 0 -20 -7 -20 -40 0 -33 -3
-40 -20 -40 -18 0 -20 -7 -20 -85 0 -84 0 -85 -25 -85 -24 0 -25 -3 -25 -60 0
-53 -2 -60 -20 -60 -19 0 -20 -7 -20 -105 0 -98 -1 -105 -20 -105 -17 0 -20
-7 -20 -40 0 -45 21 -52 31 -10 4 14 7 -64 8 -172 1 -191 2 -198 21 -198 13 0
20 -7 20 -20 0 -18 7 -20 83 -20 95 0 127 -7 127 -26 0 -10 28 -14 123 -16
109 -3 122 -5 121 -20 -2 -16 8 -18 67 -18 62 0 69 -2 69 -20 0 -18 7 -20 80
-20 73 0 80 -2 80 -20 0 -18 7 -20 58 -20 31 0 68 -3 81 -7 23 -6 23 -7 5 -14
-16 -7 -17 -8 -1 -8 9 -1 17 -5 17 -11 0 -5 20 -10 45 -10 32 0 45 -4 45 -14
0 -20 23 -26 101 -26 62 0 69 -2 69 -20 0 -19 7 -20 105 -20 98 0 105 -1 105
-20 0 -19 7 -20 129 -20 124 0 129 -1 124 -20 -5 -19 0 -20 85 -20 85 0 91 -1
87 -20 -4 -19 2 -20 134 -20 l139 0 6 -25 6 -25 165 0 c158 0 165 -1 165 -20
0 -19 7 -20 145 -20 138 0 145 -1 145 -20 0 -19 7 -20 230 -20 223 0 230 1
230 20 0 17 7 20 40 20 33 0 40 3 40 20 0 17 7 20 45 20 40 0 45 3 46 23 l0
22 9 -22 c5 -13 14 -23 20 -23 14 0 13 17 -2 23 -10 4 -10 6 0 6 7 1 10 6 7
11 -4 6 12 10 39 10 39 0 46 3 46 20 0 17 7 20 45 20 37 0 45 3 45 19 0 19 23
35 34 24 3 -4 6 -14 6 -23 0 -13 11 -19 40 -24 29 -5 38 -10 34 -21 -5 -13 8
-15 85 -15 90 0 91 0 91 -25 0 -22 4 -25 40 -25 33 0 40 -3 40 -20 0 -17 7
-20 40 -20 33 0 40 -3 40 -20 0 -17 7 -20 45 -20 38 0 45 3 45 20 0 18 7 20
64 20 53 0 65 3 69 18 4 16 5 16 6 0 0 -10 5 -18 10 -18 6 0 8 9 6 20 -3 18 2
20 46 20 46 0 49 2 49 25 0 23 4 25 40 25 33 0 40 3 40 20 0 17 7 20 40 20 32
0 40 4 40 18 0 19 1 19 102 25 24 2 31 47 7 47 -12 0 -16 5 -13 15 5 11 -1 15
-22 15 -28 0 -29 2 -27 42 1 24 2 45 2 48 1 3 46 4 101 2 98 -3 100 -4 100
-28 0 -17 -5 -24 -20 -24 -13 0 -20 -7 -20 -20 0 -17 7 -20 49 -20 44 0 49 2
44 20 -4 14 0 20 12 20 12 0 15 -5 10 -17 -4 -12 -3 -14 3 -8 11 12 22 140 13
152 -3 4 -5 63 -3 131 3 113 5 122 23 122 19 0 24 17 20 63 -2 11 5 17 18 17
14 0 21 6 21 20 0 13 -7 20 -20 20 -19 0 -20 7 -20 125 0 119 -1 125 -20 125
-19 0 -21 5 -18 62 2 50 6 63 21 66 14 3 17 -4 17 -37 0 -34 3 -41 20 -41 15
0 20 -7 20 -24 0 -18 6 -25 23 -28 15 -2 21 -9 19 -20 -2 -12 4 -18 18 -18 13
0 20 -7 20 -20 0 -13 -7 -20 -20 -20 -17 0 -20 -7 -20 -40 l0 -40 49 0 c41 0
50 3 54 21 4 14 10 18 18 13 10 -6 10 -9 1 -12 -20 -6 -13 -18 13 -20 41 -3
50 -6 57 -22 5 -12 7 -12 7 3 1 14 11 17 71 17 63 0 70 -2 70 -20 0 -11 6 -20
14 -20 9 0 17 -15 21 -39 6 -35 29 -60 43 -46 3 3 0 5 -6 5 -6 0 -9 7 -6 15 4
8 17 15 30 15 13 0 25 5 25 10 1 6 2 16 3 23 0 6 17 14 36 17 32 5 35 8 38 43
3 32 7 37 28 37 17 0 24 5 24 20 0 13 7 20 20 20 17 0 20 7 20 44 0 39 2 44
20 39 14 -4 20 0 20 12 0 13 -6 16 -22 12 -22 -6 -22 -6 -4 8 11 8 39 15 63
15 l43 0 0 60 c0 53 2 60 20 60 13 0 20 7 20 20 0 15 7 20 25 20 18 0 25 5 25
20 0 13 7 20 20 20 15 0 20 7 20 25 0 18 5 25 20 25 13 0 20 7 20 20 0 13 7
20 20 20 13 0 20 7 20 20 0 13 7 20 20 20 13 0 20 7 20 20 0 13 7 20 20 20 13
0 20 7 20 20 0 18 7 20 87 20 77 0 85 2 67 14 -10 8 -16 18 -11 22 4 4 7 2 7
-4 0 -7 5 -12 11 -12 5 0 7 5 4 10 -4 6 27 10 84 10 90 0 91 0 91 25 0 18 5
25 20 25 17 0 20 7 20 40 0 33 3 40 20 40 16 0 20 7 20 31 0 24 4 30 15 25 8
-3 15 -1 15 4 0 5 -8 11 -17 13 -14 4 -12 5 5 6 20 1 22 6 22 66 l0 65 45 0
45 0 0 44 c0 39 2 44 20 39 18 -5 20 0 20 36 0 34 3 41 20 41 18 0 20 7 20 61
0 52 3 62 20 66 16 4 20 14 20 48 0 33 5 44 23 54 12 6 14 9 5 7 -28 -8 -69
16 -66 39 2 11 11 21 21 23 13 3 17 -3 17 -28 0 -25 3 -31 16 -26 9 3 18 6 20
6 2 0 4 11 4 25 0 18 5 25 20 25 18 0 20 7 20 80 0 75 -1 80 -21 80 -16 0 -20
-5 -16 -20 5 -18 0 -20 -43 -20 -58 0 -80 -7 -80 -26 0 -11 -19 -14 -85 -14
-78 0 -85 -2 -85 -20 0 -18 -7 -20 -85 -20 -78 0 -85 -2 -85 -20 0 -18 -7 -20
-80 -20 -79 0 -80 0 -80 -25 l0 -25 -145 0 c-138 0 -145 -1 -145 -20 0 -20 -7
-20 -331 -20 -322 0 -331 -1 -336 -20 -5 -19 -14 -20 -234 -20 -222 0 -229 -1
-229 -20 0 -17 -7 -20 -40 -20 -33 0 -40 3 -40 20 0 19 -7 20 -90 20 -50 0
-89 -3 -89 -7 4 -23 -4 -30 -36 -31 -29 -1 -35 2 -35 18 0 13 -7 20 -20 20
-18 0 -25 -10 -21 -32 0 -5 -10 -8 -24 -8 -16 0 -25 6 -25 15 0 8 -7 15 -15
15 -8 0 -15 -5 -15 -11 0 -5 5 -7 10 -4 6 3 10 1 10 -4 0 -7 -29 -11 -75 -11
-68 0 -75 2 -75 20 0 19 -7 20 -105 20 -98 0 -105 -1 -105 -20 0 -13 -7 -20
-20 -20 -13 0 -20 7 -20 20 0 17 -7 20 -45 20 -38 0 -45 -3 -45 -20 0 -18 -10
-24 -32 -21 -3 0 -5 -7 -3 -17 1 -9 10 -16 19 -16 11 1 16 -6 16 -22 0 -17 -6
-24 -20 -24 -15 0 -20 -7 -20 -25 0 -18 -5 -25 -20 -25 -13 0 -20 -7 -20 -20
0 -13 -7 -20 -20 -20 -17 0 -20 7 -20 45 0 38 -3 45 -20 45 -17 0 -20 7 -20
40 0 33 -3 40 -20 40 -13 0 -20 7 -20 20 0 18 -7 20 -65 20 -58 0 -65 -2 -65
-20 0 -13 -7 -20 -20 -20 -13 0 -20 7 -20 20 0 19 -7 20 -190 20 -183 0 -190
1 -190 20 0 18 -7 20 -64 20 -73 0 -96 6 -96 26 0 10 -13 14 -45 14 -41 0 -45
2 -45 25 0 24 -3 25 -60 25 -53 0 -60 2 -60 20 0 18 -7 20 -65 20 -58 0 -65 2
-65 20 0 18 -7 20 -60 20 -53 0 -60 2 -60 20 0 18 -7 20 -65 20 -58 0 -65 2
-65 20 0 17 -7 20 -40 20 -33 0 -40 3 -40 20 0 18 -7 20 -60 20 -57 0 -60 1
-60 25 0 25 -1 25 -85 25 -78 0 -85 2 -85 20 0 18 -7 20 -72 21 -40 1 -76 1
-80 0 -5 0 -7 2 -7 7 5 29 -4 32 -86 32 -78 0 -85 -2 -85 -20z m5105 -381 c11
-16 1 -19 -13 -3 -7 8 -8 14 -3 14 5 0 13 -5 16 -11z m-4105 -39 c0 -16 -6
-20 -29 -18 -22 2 -27 6 -23 20 6 26 52 24 52 -2z m4082 -19 c-4 -37 -6 -39
-43 -43 -35 -3 -39 -1 -39 19 0 16 6 23 20 23 13 0 20 7 20 20 0 14 7 20 23
20 20 0 22 -4 19 -39z m-4174 -25 c3 -13 -1 -17 -14 -14 -11 2 -20 11 -22 22
-3 13 1 17 14 14 11 -2 20 -11 22 -22z m-38 -36 c0 -15 -7 -20 -26 -20 -14 0
-23 -4 -19 -9 3 -6 -4 -15 -15 -21 -17 -9 -20 -8 -20 10 0 11 6 20 13 20 9 0
8 3 -2 9 -21 14 -5 28 34 29 29 1 35 -2 35 -18z m4037 0 c-4 -16 0 -20 22 -20
25 0 26 -2 23 -45 l-4 -45 -40 0 -39 0 2 65 c2 57 5 65 22 65 14 0 18 -5 14
-20z m-4247 -40 c0 -13 -7 -20 -20 -20 -13 0 -20 7 -20 20 0 13 7 20 20 20 13
0 20 -7 20 -20z m878 -43 c-4 -28 -62 -38 -72 -12 -9 25 -1 32 39 33 32 1 36
-1 33 -21z m332 13 c0 -5 -6 -10 -12 -10 -9 0 -8 -3 2 -10 18 -11 7 -25 -15
-17 -23 9 -19 47 5 47 11 0 20 -4 20 -10z m-1290 -60 c0 -13 7 -20 20 -20 13
0 20 -7 20 -20 0 -13 -7 -20 -20 -20 -13 0 -20 -7 -20 -20 0 -13 -7 -20 -20
-20 -13 0 -20 7 -20 20 0 11 -4 20 -10 20 -5 0 -10 9 -10 20 0 11 5 20 10 20
6 0 10 6 10 14 0 9 -8 13 -22 10 -21 -4 -22 -4 -3 5 36 17 65 13 65 -9z m-73
-52 c-3 -7 -5 -2 -5 12 0 14 2 19 5 13 2 -7 2 -19 0 -25z m-596 -60 c0 -10 2
-10 6 0 7 17 33 15 33 -3 0 -14 -12 -19 -32 -16 -5 0 -8 -10 -8 -24 0 -22 -4
-25 -40 -25 l-40 0 0 40 0 40 40 0 c25 0 40 -5 41 -12z m839 -48 c0 -13 7 -20
18 -20 14 0 18 -8 18 -30 0 -16 -6 -32 -13 -35 -8 -2 -11 0 -8 5 4 6 -8 10
-28 10 -34 0 -35 1 -39 45 -3 43 -2 45 24 45 21 0 28 -5 28 -20z m748 -2 c3
-13 -3 -18 -22 -18 -20 0 -26 5 -26 21 0 15 5 20 22 17 13 -2 24 -11 26 -20z
m452 -22 c0 -42 -1 -44 -35 -50 -23 -5 -32 -11 -29 -20 3 -9 -2 -13 -17 -12
-12 0 -24 7 -25 14 -1 7 0 8 3 2 11 -23 23 -8 23 30 0 33 3 40 20 40 13 0 20
7 20 20 0 13 7 20 20 20 17 0 20 -7 20 -44z m1497 12 c-3 -8 -6 -5 -6 6 -1 11
2 17 5 13 3 -3 4 -12 1 -19z m-3577 -118 l0 -60 -60 0 c-53 0 -60 2 -60 20 0
13 7 20 20 20 13 0 20 7 20 20 0 13 7 20 20 20 13 0 20 7 20 20 0 13 7 20 20
20 18 0 20 -7 20 -60z m3292 32 c2 -16 -1 -33 -7 -39 -19 -17 -35 -2 -35 33 0
27 4 34 19 34 13 0 20 -9 23 -28z m-2261 -27 c6 15 8 10 8 -21 1 -33 5 -43 21
-47 16 -4 20 -14 21 -54 0 -26 3 -42 6 -35 7 17 43 15 43 -3 0 -9 -6 -12 -17
-9 -15 5 -15 3 1 -10 19 -16 19 -16 -2 -16 -12 0 -22 6 -23 13 0 10 -2 10 -6
0 -2 -7 -13 -13 -24 -13 -14 0 -19 7 -19 30 0 23 -3 28 -17 23 -11 -4 -14 -3
-9 5 4 7 2 12 -3 12 -6 0 -10 3 -9 8 4 16 -14 52 -28 52 -8 0 -14 10 -14 25 0
20 5 25 28 26 15 0 21 3 13 6 -11 5 -11 7 0 14 10 6 15 3 18 -9 3 -15 5 -15
12 3z m1639 -60 c0 -28 -4 -35 -20 -35 -17 0 -20 -7 -20 -50 0 -47 -2 -50 -25
-50 -25 0 -25 1 -25 85 l0 85 45 0 c45 0 45 0 45 -35z m660 20 c0 -16 -27 -32
-37 -22 -3 4 -3 13 0 22 8 20 37 20 37 0z m450 11 c0 -2 -7 -9 -15 -16 -12
-10 -15 -10 -15 4 0 9 7 16 15 16 8 0 15 -2 15 -4z m50 -11 c0 -7 -6 -18 -13
-22 -8 -4 -16 -16 -20 -25 -8 -23 -47 -24 -47 -1 0 23 39 63 62 63 10 0 18 -7
18 -15z m-2450 -35 c0 -5 -12 -10 -27 -9 l-28 1 25 8 c14 4 26 8 28 9 1 1 2
-3 2 -9z m2352 -62 c-8 -8 -9 -4 -5 13 4 13 8 18 11 10 2 -7 -1 -18 -6 -23z
m1053 12 c4 -6 -1 -7 -11 -3 -13 5 -15 3 -9 -7 5 -9 4 -11 -3 -6 -7 4 -12 11
-12 17 0 12 27 12 35 -1z m-4616 -57 c0 -21 -3 -32 -6 -25 -2 7 -22 12 -44 12
-35 0 -39 3 -39 25 0 23 4 25 45 25 l45 0 -1 -37z m-501 -28 c11 -10 -21 -25
-55 -25 -27 0 -33 4 -33 21 0 19 4 21 41 16 22 -3 44 -8 47 -12z m752 -3 c0
-17 -18 -42 -30 -42 -3 0 -7 14 -8 30 -2 24 2 30 18 30 13 0 20 -7 20 -18z
m3908 -19 c-3 -25 -9 -38 -18 -38 -10 0 -16 13 -18 38 -3 32 0 37 18 37 19 0
21 -5 18 -37z m-3828 -23 c0 -18 -6 -20 -57 -19 -32 1 -50 3 -40 6 9 2 17 11
17 19 0 10 12 14 40 14 33 0 40 -3 40 -20z m-710 -40 c0 -13 7 -20 20 -20 13
0 20 -7 20 -20 0 -15 7 -20 25 -20 18 0 25 -5 25 -20 0 -15 -7 -20 -25 -20
-20 0 -25 -5 -25 -25 0 -18 -5 -25 -20 -25 -17 0 -20 7 -20 41 0 32 -4 42 -20
46 -16 4 -20 14 -20 44 0 32 3 39 20 39 13 0 20 -7 20 -20z m3778 -33 c15 6
15 5 3 -11 -11 -13 -16 -14 -22 -4 -5 7 -8 18 -8 23 0 6 3 5 5 -2 3 -7 13 -9
22 -6z m-3541 -81 c-3 -8 -1 -17 6 -19 7 -2 -4 -9 -23 -14 -43 -12 -50 -9 -50
23 0 21 4 24 36 24 27 0 35 -4 31 -14z m3388 -113 c0 -30 -4 -38 -20 -41 l-20
-4 20 17 c17 14 17 16 3 11 -14 -4 -18 1 -18 24 0 22 5 30 18 30 14 0 18 -8
17 -37z m-3995 -23 c0 -13 -7 -20 -20 -20 -13 0 -20 7 -20 20 0 13 7 20 20 20
13 0 20 -7 20 -20z m210 0 c0 -15 -7 -20 -25 -20 -18 0 -25 5 -25 20 0 15 7
20 25 20 18 0 25 -5 25 -20z m3288 -3 c2 -12 -3 -17 -17 -17 -23 0 -24 1 -15
25 8 19 28 15 32 -8z m1115 -4 c-7 -2 -19 -2 -25 0 -7 3 -2 5 12 5 14 0 19 -2
13 -5z m45 -35 c-3 -20 1 -23 25 -20 21 3 27 -1 27 -16 0 -17 -8 -19 -85 -21
-80 -2 -85 -1 -85 18 0 14 6 21 20 21 13 0 20 7 20 20 0 17 7 20 41 20 36 0
40 -2 37 -22z m-5118 -83 c0 -18 -5 -25 -20 -25 -15 0 -20 7 -20 25 0 18 5 25
20 25 15 0 20 -7 20 -25z m830 1 c0 -23 -22 -41 -34 -29 -11 11 -6 41 7 46 23
10 27 7 27 -17z m3210 -66 l0 -40 -40 0 c-33 0 -40 4 -40 19 0 10 -8 21 -18
23 -10 3 -19 13 -19 22 0 13 11 16 59 16 l58 0 0 -40z m-4090 -59 c0 -5 -7
-12 -16 -15 -14 -5 -15 -4 -4 9 14 17 20 19 20 6z m420 -41 c0 -18 -6 -20 -40
-18 -22 1 -40 3 -40 5 0 14 30 32 53 33 21 0 27 -5 27 -20z m2720 -202 c0 6 7
12 15 12 8 0 15 -4 15 -10 0 -5 -5 -10 -12 -10 -24 0 -1 -9 40 -15 39 -6 59 6
30 18 -8 4 -7 6 3 6 9 1 19 -9 23 -21 12 -45 8 -49 -37 -47 -28 2 -44 7 -44
16 0 7 5 13 11 14 6 1 -9 5 -33 10 -25 5 -49 14 -55 20 -8 9 -6 10 7 6 10 -4
17 -1 17 6 0 8 4 6 10 -3 6 -10 10 -11 10 -2z m314 -34 c10 -4 16 -18 16 -40
0 -31 -2 -34 -31 -34 -24 0 -30 4 -25 15 3 8 1 15 -4 15 -6 0 -10 5 -10 11 0
5 5 7 12 3 7 -4 8 -3 4 5 -6 9 -11 9 -22 0 -11 -9 -14 -8 -14 3 0 8 3 18 7 21
8 9 46 9 67 1z m549 -11 c-7 -2 -19 -2 -25 0 -7 3 -2 5 12 5 14 0 19 -2 13 -5z
m-6 -35 c-3 -8 -6 -5 -6 6 -1 11 2 17 5 13 3 -3 4 -12 1 -19z m343 -28 l0 -50
-40 0 c-36 0 -40 3 -40 25 0 18 5 25 20 25 18 0 22 5 19 27 0 6 19 17 39 22 1
1 2 -21 2 -49z m-383 24 c-3 -3 -12 -4 -19 -1 -8 3 -5 6 6 6 11 1 17 -2 13 -5z
m46 -21 c-7 -2 -19 -2 -25 0 -7 3 -2 5 12 5 14 0 19 -2 13 -5z m-216 -59 c-3
-3 -12 -4 -19 -1 -8 3 -5 6 6 6 11 1 17 -2 13 -5z m-867 -53 c0 -11 -9 -22
-19 -26 -13 -4 -21 -17 -23 -38 -4 -39 -38 -52 -39 -15 0 13 -3 17 -6 10 -7
-18 -33 4 -33 29 0 15 8 19 40 19 33 0 40 3 40 20 0 13 7 20 20 20 13 0 20 -7
20 -19z m170 -41 c0 -11 -4 -20 -10 -20 -5 0 -14 9 -20 20 -9 17 -8 20 10 20
13 0 20 -7 20 -20z m1378 -60 c1 -36 -2 -40 -24 -40 -21 0 -24 5 -24 33 0 38
6 47 30 47 14 0 18 -9 18 -40z m-1514 -12 c-3 -4 -12 -8 -20 -8 -8 0 -13 4
-10 8 3 5 12 9 20 9 8 0 13 -4 10 -9z m16 -45 c0 -21 -5 -45 -10 -53 -6 -10
-10 -11 -10 -2 0 6 -6 11 -12 10 -8 -2 -14 11 -16 34 -3 35 2 41 41 47 4 0 7
-16 7 -36z m290 -3 c0 -23 -4 -30 -20 -30 -26 0 -28 46 -2 53 9 3 18 5 20 6 1
0 2 -12 2 -29z m-502 -5 c-2 -18 -8 -25 -23 -25 -16 0 -17 2 -5 10 10 6 11 10
3 10 -7 0 -13 7 -13 15 0 8 9 15 20 15 15 0 19 -6 18 -25z m-2048 -40 c10 -12
10 -15 -4 -15 -9 0 -16 7 -16 15 0 8 2 15 4 15 2 0 9 -7 16 -15z m3470 6 c0
-12 -17 -32 -26 -30 -22 4 -33 -2 -28 -15 3 -9 -3 -17 -15 -21 -12 -3 -21 -15
-21 -26 0 -16 -7 -19 -40 -19 l-40 0 3 38 c1 25 7 37 17 37 8 0 16 10 18 23 3
22 8 23 68 21 35 -1 64 -5 64 -8z m240 -5 c0 -3 -4 -8 -10 -11 -5 -3 -10 -1
-10 4 0 6 5 11 10 11 6 0 10 -2 10 -4z m-750 -46 c0 -11 -7 -20 -15 -20 -8 0
-19 9 -25 20 -9 18 -8 20 15 20 18 0 25 -5 25 -20z m-40 -35 c0 -24 -3 -25
-52 -24 -29 0 -47 3 -40 6 6 2 12 11 12 18 0 9 15 15 38 18 20 2 38 4 40 5 1
1 2 -9 2 -23z m-2303 -47 c-3 -8 -6 -5 -6 6 -1 11 2 17 5 13 3 -3 4 -12 1 -19z"/>
<path d="M31106 38692 c-3 -6 -1 -14 5 -17 15 -10 25 3 12 16 -7 7 -13 7 -17
1z"/>
<path d="M32765 38360 c-3 -5 -1 -10 4 -10 6 0 11 5 11 10 0 6 -2 10 -4 10 -3
0 -8 -4 -11 -10z"/>
<path d="M29810 39281 c0 -6 5 -13 10 -16 6 -3 10 1 10 9 0 9 -4 16 -10 16 -5
0 -10 -4 -10 -9z"/>
<path d="M34960 39140 c0 -13 7 -20 20 -20 13 0 20 7 20 20 0 13 -7 20 -20 20
-13 0 -20 -7 -20 -20z"/>
<path d="M27380 37850 c0 -15 -7 -20 -25 -20 -18 0 -25 -5 -25 -19 0 -13 -8
-21 -22 -23 -13 -2 -22 -9 -20 -17 1 -7 -7 -15 -18 -18 -11 -3 -20 -14 -20
-24 0 -12 -7 -19 -20 -19 -15 0 -20 -7 -20 -25 0 -18 -5 -25 -20 -25 -13 0
-20 -7 -20 -20 0 -13 -7 -20 -20 -20 -13 0 -20 -7 -20 -20 0 -13 7 -20 20 -20
13 0 20 -7 20 -20 0 -17 7 -20 40 -20 33 0 40 -3 40 -20 0 -17 7 -20 40 -20
33 0 40 -3 40 -20 0 -15 7 -20 25 -20 20 0 25 -5 25 -25 0 -18 5 -25 20 -25
14 0 20 -7 20 -21 0 -13 6 -20 18 -18 45 4 62 -1 62 -21 0 -18 7 -20 65 -20
l65 0 0 85 c0 84 0 85 -25 85 -24 0 -25 3 -25 60 0 53 -2 60 -20 60 -18 0 -20
7 -20 65 0 58 -2 65 -20 65 -14 0 -20 7 -20 24 0 19 -4 23 -20 19 -15 -4 -20
0 -20 16 0 14 -6 21 -20 21 -13 0 -20 7 -20 20 0 13 -7 20 -20 20 -13 0 -20
-7 -20 -20z"/>
<path d="M27258 37763 c7 -3 16 -2 19 1 4 3 -2 6 -13 5 -11 0 -14 -3 -6 -6z"/>
<path d="M33249 37411 c-1 -3 -1 -14 0 -23 2 -11 -5 -18 -16 -18 -10 0 -28 -3
-40 -6 -19 -5 -23 -2 -23 17 0 21 -5 24 -45 27 l-45 2 0 -39 c0 -33 4 -40 23
-43 19 -3 22 -9 22 -43 0 -33 -3 -40 -20 -40 -28 0 -25 -29 3 -33 19 -3 22 -9
22 -52 0 -43 -2 -48 -20 -43 -16 4 -19 2 -14 -11 4 -10 13 -15 21 -12 8 3 11
1 8 -4 -9 -14 -32 -12 -38 3 -3 6 -6 -3 -6 -20 -1 -29 2 -33 24 -33 18 0 25 5
25 20 0 13 7 20 20 20 13 0 20 7 20 20 0 13 7 20 20 20 13 0 20 7 20 20 0 13
7 20 20 20 17 0 20 7 20 45 l0 45 40 0 41 0 -3 77 -3 78 -37 6 c-21 3 -39 3
-39 0z m-42 -66 c0 -10 -6 -14 -14 -10 -8 3 -18 5 -21 6 -4 0 2 4 13 9 11 5
20 9 21 9 0 1 1 -6 1 -14z m109 -73 c1 -7 0 -8 -3 -2 -2 5 -9 8 -14 4 -5 -3
-9 0 -9 6 0 15 23 7 26 -8z"/>
<path d="M32938 36963 c7 -3 16 -2 19 1 4 3 -2 6 -13 5 -11 0 -14 -3 -6 -6z"/>
<path d="M48711 35014 c0 -11 3 -14 6 -6 3 7 2 16 -1 19 -3 4 -6 -2 -5 -13z"/>
<path d="M49388 34663 c7 -3 16 -2 19 1 4 3 -2 6 -13 5 -11 0 -14 -3 -6 -6z"/>
<path d="M52421 33674 c0 -11 3 -14 6 -6 3 7 2 16 -1 19 -3 4 -6 -2 -5 -13z"/>
<path d="M58190 33351 c0 -6 4 -13 10 -16 6 -3 7 1 4 9 -7 18 -14 21 -14 7z"/>
<path d="M54880 33259 c0 -5 5 -7 10 -4 6 3 10 8 10 11 0 2 -4 4 -10 4 -5 0
-10 -5 -10 -11z"/>
<path d="M56855 33179 c-4 -6 -4 -13 -1 -16 3 -4 6 0 6 8 0 11 2 11 10 -1 8
-13 10 -12 10 3 0 19 -15 23 -25 6z"/>
<path d="M56218 33123 c23 -2 61 -2 85 0 23 2 4 4 -43 4 -47 0 -66 -2 -42 -4z"/>
</g>
</svg>
